{
.appVersion = "3260";
.formatVersion = 3;
DisplayStrings = (
"Zero Handles
0123456789ABCDEFGHIJKLMNOPQRSTUVWXYZabcdefghijklmnopqrstuvwxyz

Angled Handles
0123456789ABCDEFGHIJKLMNOPQRSTUWXYZabcdefghijklmnopqrstuwxyz

Almost Orthogonal Lines
1489CEJKMOPQRVXcejkmopqrvx

Bad Path Orientation
068BDGIORTbdgiort

"
);
customParameters = (
{
name = vendorID;
value = XXXX;
},
{
name = panose;
value = (
0,
0,
0,
0,
0,
0,
0,
0,
0,
0
);
},
{
name = unicodeRanges;
value = (
0,
1
);
},
{
name = codePageRanges;
value = (
"1252"
);
},
{
name = fsType;
value = (
);
},
{
name = glyphOrder;
value = (
.notdef,
controlCR,
space,
zero,
one,
two,
three,
four,
five,
six,
seven,
eight,
nine,
A,
B,
C,
D,
E,
F,
G,
H,
I,
J,
K,
L,
M,
N,
O,
P,
Q,
R,
S,
T,
U,
V,
W,
X,
Y,
Z,
a,
b,
c,
d,
e,
f,
g,
h,
i,
j,
k,
l,
m,
n,
o,
p,
q,
r,
s,
t,
u,
v,
w,
x,
y,
z,
nonbreakingspace
);
}
);
date = "2017-05-04 01:08:16 +0000";
familyName = "Sir Guppy";
fontMaster = (
{
customParameters = (
{
name = typoAscender;
value = 615;
},
{
name = typoDescender;
value = -200;
},
{
name = typoLineGap;
value = 0;
},
{
name = winAscent;
value = 621;
},
{
name = winDescent;
value = 31;
},
{
name = hheaAscender;
value = 615;
},
{
name = hheaDescender;
value = -200;
},
{
name = strikeoutPosition;
value = 258;
},
{
name = strikeoutSize;
value = 49;
}
);
id = m01;
metricValues = (
{
pos = 615;
},
{
pos = 604;
},
{
pos = 601;
},
{
},
{
pos = -200;
},
{
}
);
name = Medium;
}
);
glyphs = (
{
glyphname = zero;
lastChange = "2024-06-01 14:10:28 +0000";
layers = (
{
layerId = m01;
shapes = (
{
closed = 1;
nodes = (
(369.18,11.2,o),
(492.49,42.03,o),
(565.99,82.34,c),
(698.78,317.09,o),
(547.02,556.59,o),
(395.26,558.96,cs),
(395.27,558.95,ls),
(391.12,557.57,o),
(65.06,430.95,o),
(65.06,430.95,c),
(111.63,369.72,l),
(58.75,185.42,o),
(148.21,107.03,o),
(224.54,51.51,c)
);
},
{
closed = 1;
nodes = (
(131.95,8.01,o),
(217.54,25.84,o),
(217.54,25.84,c),
(106.99,72.2,o),
(14.28,197.01,o),
(0.01,314.68,c),
(0.01,22.27,l)
);
},
{
closed = 1;
nodes = (
(408.32,264.81,l),
(334.81,345.43,l),
(292.13,238.72,l),
(382.24,143.88,l)
);
},
{
closed = 1;
nodes = (
(201.62,154.26,o),
(240.35,400.87,o),
(265.64,441.97,c),
(285.4,459.36,o),
(322.55,476.75,o),
(347.84,478.33,c),
(513.83,355.03,o),
(464.03,148.73,o),
(442.69,79.96,c),
(442.69,79.96,o),
(409.49,72.06,o),
(366.81,72.06,c)
);
},
{
closed = 1;
nodes = (
(271.03,560.73,l),
(21.41,564.3,l),
(10.71,471.58,l)
);
},
{
closed = 1;
nodes = (
(691.8,197,l),
(691.8,139.94,o),
(591.96,18.7,o),
(591.96,18.7,c),
(702.5,15.13,l)
);
},
{
closed = 1;
nodes = (
(695.37,560.73,l),
(695.37,560.73,o),
(616.92,578.56,o),
(549.17,564.3,c),
(620.49,514.38,o),
(656.15,453.76,o),
(691.81,321.81,c)
);
}
);
width = 752;
}
);
note = zero;
unicode = 48;
},
{
glyphname = one;
layers = (
{
layerId = m01;
shapes = (
{
closed = 1;
nodes = (
(0,575.85,l),
(0,575.85,o),
(26.76,476.46,o),
(24.85,400,c),
(120.42,445.88,o),
(215.99,577.76,o),
(215.99,577.76,c)
);
},
{
closed = 1;
nodes = (
(563.87,120.93,o),
(579.17,541.44,o),
(579.17,541.44,c),
(401.41,549.09,l),
(407.15,449.7,o),
(512.28,182.09,o),
(558.15,84.61,c)
);
},
{
closed = 1;
nodes = (
(280.99,464.98,o),
(128.08,352.21,o),
(59.27,321.62,c),
(93.68,312.06,o),
(133.82,304.42,o),
(170.14,323.53,c),
(158.53,271.29,o),
(163.14,183.95,o),
(168.55,123.29,c),
(112.21,137.65,o),
(66.73,155.03,o),
(47.81,180.17,c),
(42.07,134.29,o),
(63.1,67.39,o),
(84.12,34.9,c),
(169.95,-16.34,o),
(369.91,18.16,o),
(529.49,23.43,c),
(498.06,48.69,o),
(440.28,65.64,o),
(375.13,80.04,c),
(345.15,200.28,o),
(351.98,351.81,o),
(355.54,554.81,c)
);
}
);
width = 629;
}
);
note = one;
unicode = 49;
},
{
glyphname = two;
layers = (
{
layerId = m01;
shapes = (
{
closed = 1;
nodes = (
(13.99,61.62,l),
(13.99,61.62,o),
(73.95,199.54,o),
(139.92,261.5,c),
(2,315.47,l)
);
},
{
closed = 1;
nodes = (
(593.65,551.33,o),
(593.65,579.31,o),
(593.65,579.31,c),
(395.77,569.32,l),
(465.73,551.33,o),
(567.67,471.38,o),
(581.66,413.41,c)
);
},
{
closed = 1;
nodes = (
(0,557.33,l),
(0,557.33,o),
(2,449.39,o),
(6,405.42,c),
(8,421.41,o),
(99.94,527.35,o),
(155.91,567.32,c)
);
},
{
closed = 1;
nodes = (
(587.66,291.48,ls),
(505.71,161.56,o),
(435.75,73.61,o),
(377.78,35.63,c),
(345.8,41.63,o),
(293.83,47.62,o),
(293.83,47.62,c),
(361.79,99.59,o),
(546.65,193.81,o),
(501.71,411.41,cs),
(463.73,595.3,o),
(125.93,621.29,o),
(31.98,375.43,c),
(187.89,309.47,l),
(193.89,477.37,l),
(243.86,523.34,o),
(387.78,541.33,o),
(427.76,409.41,c),
(287.84,359.44,o),
(73.96,153.56,o),
(33.99,9.64,c),
(179.91,21.63,o),
(599.66,5.64,o),
(599.66,5.64,c),
(599.66,5.64,o),
(581.67,221.51,o),
(587.67,291.47,cs)
);
}
);
width = 650;
}
);
note = two;
unicode = 50;
},
{
glyphname = three;
layers = (
{
layerId = m01;
shapes = (
{
closed = 1;
nodes = (
(291.86,256.89,l),
(364.11,206.32,l),
(437.8,241,l),
(369.89,284.35,l)
);
},
{
closed = 1;
nodes = (
(606.86,51.72,o),
(664.65,54.61,o),
(664.65,54.61,c),
(640.09,186.1,l),
(640.09,162.98,o),
(602.52,77.73,o),
(577.96,51.72,c)
);
},
{
closed = 1;
nodes = (
(14.44,43.05,l),
(14.44,43.05,o),
(73.68,43.05,o),
(118.47,37.27,c),
(85.24,58.94,o),
(37.56,112.41,o),
(18.77,161.53,c)
);
},
{
closed = 1;
nodes = (
(631.4,385.49,o),
(631.4,538.65,o),
(631.4,538.65,c),
(631.4,538.65,o),
(563.49,408.61,o),
(544.71,385.49,c),
(573.61,373.93,o),
(621.29,334.92,o),
(629.96,317.58,c)
);
},
{
closed = 1;
nodes = (
(-0.02,558.88,l),
(-0.02,558.88,o),
(10.09,333.47,o),
(21.65,229.44,c),
(24.54,256.89,o),
(70.78,333.47,o),
(115.57,365.26,c)
);
},
{
closed = 1;
nodes = (
(493.65,393.68,o),
(563.01,486.15,o),
(589.98,567.07,c),
(69.81,559.36,l),
(139.17,397.53,l),
(212.38,509.27,l),
(212.38,509.27,o),
(270.18,513.12,o),
(354.95,513.12,c),
(353.98,485.19,o),
(350.61,406.68,o),
(323.64,379.71,c),
(245.61,363.82,o),
(221.05,306.02,o),
(221.05,306.02,c),
(313.52,337.81,o),
(612.05,315.22,o),
(501.36,201.02,cs),
(379.94,75.75,o),
(188.3,179.83,o),
(156.51,329.13,c),
(156.51,329.13,o),
(62.17,279.64,o),
(64.04,208.72,cs),
(66.93,98.91,o),
(189.32,30.12,o),
(244.17,22.81,cs),
(435.97,-2.76,o),
(582.28,73.86,o),
(597.69,197.16,cs),
(607.36,274.48,o),
(576.5,340.69,o),
(462.83,358.99,c)
);
}
);
width = 715;
}
);
note = three;
unicode = 51;
},
{
glyphname = four;
layers = (
{
layerId = m01;
shapes = (
{
closed = 1;
nodes = (
(21.39,35.73,l),
(21.39,35.73,o),
(149.77,39.3,o),
(231.79,39.3,c),
(178.3,117.75,o),
(35.66,164.11,o),
(35.66,164.11,c)
);
},
{
closed = 1;
nodes = (
(684.67,506.45,o),
(677.54,559.94,o),
(677.54,559.94,c),
(477.85,559.94,l),
(477.85,559.94,o),
(627.62,403.04,o),
(677.54,378.07,c)
);
},
{
closed = 1;
nodes = (
(135.51,556.37,o),
(10.7,520.71,o),
(10.7,520.71,c),
(0,460.09,o),
(21.4,292.49,o),
(21.4,292.49,c),
(82.03,353.11,o),
(196.14,513.58,o),
(196.14,549.24,c)
);
},
{
closed = 1;
nodes = (
(588.4,335.28,o),
(392.28,567.07,o),
(392.28,567.07,c),
(392.28,362.82,l),
(235.37,360.25,l),
(236.26,378.08,o),
(253.2,445.83,o),
(228.24,477.93,c),
(210.41,403.04,o),
(92.73,256.84,o),
(24.98,203.35,c),
(97.23,205.93,o),
(290.77,206.64,o),
(392.28,206.84,c),
(392.28,203.35,l),
(392.28,139.16,l),
(392.28,139.16,o),
(381.58,71.41,o),
(281.73,17.92,c),
(328.09,25.05,o),
(556.31,17.92,o),
(556.31,17.92,c),
(545.61,285.37,l),
(545.61,285.37,o),
(574.14,281.8,o),
(681.12,299.63,c)
);
}
);
width = 735;
}
);
note = four;
unicode = 52;
},
{
glyphname = five;
layers = (
{
layerId = m01;
shapes = (
{
closed = 1;
nodes = (
(695.34,30.15,l),
(668.3,153.76,l),
(587.18,34.01,l)
);
},
{
closed = 1;
nodes = (
(668.3,570.96,l),
(668.3,570.96,o),
(621.95,420.31,o),
(602.63,377.81,c),
(664.44,331.45,o),
(668.3,281.24,o),
(668.3,281.24,c)
);
},
{
closed = 1;
nodes = (
(150.66,184.67,o),
(54.09,273.52,o),
(46.36,323.74,c),
(50.23,-0.75,l),
(50.23,-0.75,o),
(100.45,130.59,o),
(169.98,184.67,c)
);
},
{
closed = 1;
nodes = (
(23.19,439.62,l),
(115.9,598,l),
(0.01,605.73,l)
);
},
{
closed = 1;
nodes = (
(592.97,242.61,ls),
(565.93,360.43,o),
(239.51,302.49,o),
(239.51,302.49,c),
(264.05,410.77,l),
(341.53,407.53,o),
(434.79,397.88,o),
(548.54,412.59,c),
(548.54,412.59,o),
(604.55,493.71,o),
(604.55,555.52,c),
(484.8,520.75,o),
(334.14,542,o),
(208.6,555.52,c),
(208.6,555.52,o),
(94.64,420.32,o),
(79.19,373.96,c),
(113.88,399.98,o),
(154.03,409,o),
(200.75,411.09,c),
(154.52,254.21,l),
(266.55,292.84,o),
(428.79,283.18,o),
(440.38,223.31,cs),
(451.97,163.44,o),
(351.53,153.78,o),
(282,192.41,c),
(235.64,169.23,o),
(133.28,51.41,o),
(133.28,51.41,c),
(195.09,-29.71,o),
(382.45,-31.68,o),
(442.31,-6.53,cs),
(538.88,34.03,o),
(620,124.81,o),
(592.96,242.63,cs)
);
}
);
width = 745;
}
);
note = five;
unicode = 53;
},
{
glyphname = six;
lastChange = "2024-06-01 14:10:28 +0000";
layers = (
{
layerId = m01;
shapes = (
{
closed = 1;
nodes = (
(509.37,-8.84,o),
(641.2,205.82,o),
(514.44,337.47,cs),
(430.61,424.52,o),
(237.13,329.41,o),
(214.87,230.21,c),
(189.58,277.05,o),
(154.47,341.98,o),
(214.09,448.48,c),
(267.4,422.02,o),
(369.1,417.83,o),
(423.76,431.87,c),
(377.53,474.15,o),
(317.6,578.23,o),
(317.6,578.23,c),
(19.68,361.94,l),
(36.9,111.14,o),
(160.39,19.64,o),
(307.79,7.61,cs)
);
},
{
closed = 1;
nodes = (
(95.03,50.53,o),
(5.14,170.06,o),
(5.14,170.06,c),
(0.01,26.14,l),
(161.81,13.94,l)
);
},
{
closed = 1;
nodes = (
(435.74,103.36,o),
(314.18,126.13,o),
(247.41,209.07,c),
(293.64,270.87,o),
(379.95,289.24,o),
(415.2,272.49,cs),
(473.41,244.84,o),
(493.96,184.67,o),
(464.85,144.02,cs)
);
},
{
closed = 1;
nodes = (
(223.44,574.98,l),
(223.45,574.99,l),
(20.55,562.79,l),
(28.25,431.06,l)
);
},
{
closed = 1;
nodes = (
(577.86,33.45,o),
(603.54,35.89,o),
(603.54,35.89,c),
(598.41,150.54,l),
(598.41,150.54,o),
(557.32,74.92,o),
(521.36,33.45,c)
);
},
{
closed = 1;
nodes = (
(544.48,472.54,o),
(544.48,562.8,o),
(544.48,562.8,c),
(392.95,567.68,l),
(392.95,567.68,o),
(493.11,428.64,o),
(541.91,399.36,c)
);
}
);
width = 691;
}
);
note = six;
unicode = 54;
},
{
glyphname = seven;
layers = (
{
layerId = m01;
shapes = (
{
closed = 1;
nodes = (
(613.38,16.01,l),
(624.59,152.4,l),
(394.18,25.65,l),
(613.37,16.02,l)
);
},
{
closed = 1;
nodes = (
(-0.01,372.84,o),
(30.04,128.3,o),
(30.04,141,cs),
(30.04,153.71,o),
(165.86,311.17,o),
(165.86,311.17,c),
(8.56,466.34,l)
);
},
{
closed = 1;
nodes = (
(483.95,275.82,o),
(617.98,244.18,o),
(630.93,191.31,c),
(634.31,312.22,o),
(631.06,568.6,o),
(631.06,568.6,c),
(547.11,459.41,o),
(472.27,354.9,o),
(440.79,266.21,c)
);
},
{
closed = 1;
nodes = (
(412.27,203.66,o),
(364.84,192.26,o),
(329.5,164.32,c),
(305.53,248.68,o),
(398.4,393.51,o),
(489.66,491.93,c),
(518.67,513.05,o),
(548.93,540.15,o),
(580.29,575,c),
(400.32,527.36,o),
(90.09,557.49,o),
(8.98,565.94,c),
(47.56,485.43,o),
(194.53,345.96,o),
(194.53,345.96,c),
(194.56,388.21,o),
(190.93,430.29,o),
(190.93,430.29,c),
(233.67,426.53,o),
(295.52,412.63,o),
(371.43,433.35,c),
(296.32,330.61,o),
(153.4,227.93,o),
(147.28,158.67,cs),
(139.2,67.25,o),
(247.27,-8.83,o),
(333.6,14.12,c),
(358.77,91.03,o),
(394.31,136.11,o),
(462.25,189.74,c)
);
}
);
width = 684;
}
);
note = seven;
unicode = 55;
},
{
glyphname = eight;
lastChange = "2024-06-01 14:10:28 +0000";
layers = (
{
layerId = m01;
shapes = (
{
closed = 1;
nodes = (
(520.43,76.7,o),
(569.3,135.07,o),
(569.64,172.68,cs),
(569.9,199.44,o),
(560.7,274.25,o),
(475.24,308.56,c),
(506.41,334.68,o),
(544.19,376.25,o),
(539.4,421.98,cs),
(531.4,498.42,o),
(432.52,533.93,o),
(337.97,547.92,c),
(337.97,547.92,o),
(151.15,494.81,o),
(89.87,487.3,c),
(89.87,487.3,o),
(108.14,470.84,o),
(143.18,452.34,c),
(96.58,396.88,o),
(126.52,323.65,o),
(168.71,291.65,c),
(73.41,254.95,o),
(56.09,196.37,o),
(78.94,137.28,cs),
(132.83,-2.05,o),
(384.5,16.45,o),
(440.66,41.34,cs)
);
},
{
closed = 1;
nodes = (
(77.56,50.45,o),
(13.37,194.88,o),
(13.37,194.88,c),
(0,31.73,l),
(0,31.73,o),
(32.09,23.71,o),
(149.77,18.36,c)
);
},
{
closed = 1;
nodes = (
(363.27,54.99,o),
(249.3,48.71,o),
(208.74,100.27,cs),
(168.17,151.83,o),
(161.29,214.51,o),
(240.77,251.45,c),
(333.44,176.47,o),
(485.32,166.52,o),
(461.38,100.4,cs),
(458.17,91.53,o),
(428.4,68.75,o),
(389.03,60.43,cs)
);
},
{
closed = 1;
nodes = (
(18.71,489.06,o),
(136.39,529.18,o),
(248.72,566.62,c),
(16.04,563.95,l),
(16.04,563.95,o),
(16.04,515.81,o),
(10.69,489.06,c)
);
},
{
closed = 1;
nodes = (
(572.34,37.08,o),
(647.22,34.41,o),
(647.22,34.41,c),
(644.55,170.81,l),
(644.55,170.81,o),
(561.64,69.18,o),
(497.45,29.06,c)
);
},
{
closed = 1;
nodes = (
(177.86,350.24,o),
(184.69,399.08,o),
(239.1,425.37,c),
(286.78,404.62,o),
(404.12,390.36,o),
(419.73,379.56,cs),
(430.98,371.78,o),
(437.09,348.64,o),
(425.05,322.03,c),
(396.6,326.57,o),
(362.73,327.68,o),
(322.14,323.79,cs),
(286.87,320.41,o),
(256.42,315.47,o),
(229.45,309.48,c)
);
},
{
closed = 1;
nodes = (
(647.22,491.75,o),
(639.2,561.28,o),
(639.2,561.28,c),
(425.24,563.95,l),
(497.45,550.58,o),
(620.48,464.99,o),
(641.87,416.85,c)
);
}
);
width = 697;
}
);
note = eight;
unicode = 56;
},
{
glyphname = nine;
layers = (
{
layerId = m01;
shapes = (
{
closed = 1;
nodes = (
(645.51,170.29,o),
(530.02,52.74,o),
(481.56,26.96,c),
(566.11,24.9,o),
(660.98,26.96,o),
(660.98,26.96,c),
(655.82,230.1,l)
);
},
{
closed = 1;
nodes = (
(657.89,475.51,o),
(639.32,561.1,o),
(639.32,561.1,c),
(416.59,559.04,l),
(473.31,536.35,o),
(588.79,475.52,o),
(643.45,375.49,c)
);
},
{
closed = 1;
nodes = (
(28.88,222.88,o),
(0.01,91.92,o),
(15.47,35.21,c),
(199.02,23.87,l),
(199.02,23.87,o),
(61.88,86.77,o),
(28.88,222.88,c)
);
},
{
closed = 1;
nodes = (
(202.11,568.31,o),
(11.35,551.81,o),
(11.35,551.81,c),
(5.16,444.57,o),
(34.03,381.67,o),
(51.56,323.92,c),
(68.06,374.45,o),
(174.27,520.87,o),
(270.17,556.96,c)
);
},
{
closed = 1;
nodes = (
(302.94,273.94,o),
(253.32,373.19,o),
(285.22,447.62,c),
(336.5,438.5,o),
(398.6,396.33,o),
(432.76,338.7,c),
(401.37,316.79,o),
(361.04,290.53,o),
(340.16,284.57,cs)
);
},
{
closed = 1;
nodes = (
(467.77,603.59,o),
(233.82,518.52,o),
(185.97,461.81,cs),
(138.12,405.09,o),
(132.8,318.25,o),
(175.34,270.4,cs),
(217.72,222.72,o),
(353.35,219.09,o),
(443.74,317.26,c),
(455.41,290.68,o),
(461.11,261.64,o),
(457.14,231.41,cs),
(442.96,123.3,o),
(315.36,84.31,o),
(255.1,87.85,c),
(281.68,119.75,o),
(285.23,156.97,o),
(285.23,156.97,c),
(136.35,167.6,l),
(147.09,93.86,o),
(214.76,37.24,o),
(314.02,36.07,cs),
(495.93,33.93,o),
(662.73,174.69,o),
(565.25,389.14,cs)
);
}
);
width = 713;
}
);
note = nine;
unicode = 57;
},
{
glyphname = A;
layers = (
{
layerId = m01;
shapes = (
{
closed = 1;
nodes = (
(168.44,79.61,l),
(112.34,117.01,l),
(112.34,117.01,o),
(112.34,79.61,o),
(98.32,60.91,c)
);
},
{
closed = 1;
nodes = (
(608.41,560.73,o),
(557.92,562.1,o),
(506.19,556.81,c),
(560.83,466.22,o),
(610.26,350.82,o),
(657.43,224.63,c),
(668.77,348.98,o),
(673.69,464.61,o),
(657.43,551.41,c)
);
},
{
closed = 1;
nodes = (
(329.11,486.59,l),
(380.81,459.58,o),
(410.15,350.36,o),
(440.27,255.68,c),
(383.4,306.99,o),
(344.62,331.3,o),
(305.84,356.95,c)
);
},
{
closed = 1;
nodes = (
(577.29,286.74,o),
(505.28,455.68,o),
(440.27,562.21,c),
(399.78,575.47,o),
(336.45,576.38,o),
(276.74,569.13,c),
(181.43,569.39,o),
(51.26,545.67,o),
(51.26,545.67,c),
(46.94,495.1,o),
(51.26,401.18,o),
(51.26,401.18,c),
(75.65,430.91,o),
(113.67,497.45,o),
(178.42,537.18,c),
(214.29,540.71,o),
(267.18,526.18,o),
(283.86,512.24,c),
(283.86,512.24,o),
(261.88,410.96,o),
(254.13,386.66,c),
(193.38,425.82,o),
(95.14,412.32,o),
(55.07,339.4,c),
(55.07,339.4,o),
(66.68,304.49,o),
(65.41,304.29,c),
(106.26,345.44,o),
(173.09,352.85,o),
(225.7,311.04,c),
(225.7,311.04,o),
(210.19,254.33,o),
(189.51,213.82,c),
(167.54,232.72,o),
(117.12,247.58,o),
(69.3,201.67,cs),
(0.01,135.15,o),
(75.76,32.88,o),
(75.76,32.88,c),
(75.76,32.88,o),
(36.78,146.97,o),
(109.37,165.21,cs),
(146.59,174.56,o),
(197.27,46.38,o),
(264.49,32.88,cs),
(331.71,19.38,o),
(386,86.89,o),
(371.78,151.71,c),
(340.76,130.11,o),
(290.35,143.61,o),
(243.81,194.92,c),
(243.81,194.92,o),
(260.61,255.68,o),
(270.95,288.09,c),
(402.8,225.97,o),
(448.04,116.6,o),
(582.47,65.28,cs),
(716.9,13.97,o),
(781.53,113.89,o),
(784.12,224.62,c),
(760.85,184.11,o),
(683.3,151.7,o),
(595.4,178.71,c)
);
}
);
width = 834;
}
);
note = A;
unicode = 65;
},
{
glyphname = B;
lastChange = "2024-06-01 14:10:28 +0000";
layers = (
{
layerId = m01;
shapes = (
{
closed = 1;
nodes = (
(538.73,48.65,o),
(623.15,172.57,o),
(601.76,246.25,cs),
(601.76,246.23,ls),
(580.37,319.91,o),
(455.54,348.09,o),
(360.48,324.33,c),
(412.77,359.98,o),
(436.53,402.76,o),
(436.53,417.02,cs),
(436.53,431.28,o),
(367.61,516.84,o),
(348.59,566.75,cs),
(329.58,616.66,o),
(165.58,535.85,o),
(113.3,552.49,c),
(103.79,526.35,o),
(118.05,500.2,o),
(186.98,512.09,c),
(203.62,424.15,o),
(98.25,342.55,o),
(125.19,204.71,c),
(53.89,202.33,o),
(10.79,131.3,o),
(30.12,77.16,c),
(72.9,138.95,o),
(108.55,143.71,o),
(165.59,129.45,cs),
(222.63,115.19,o),
(339.09,1.11,o),
(438.91,24.88,cs)
);
},
{
closed = 1;
nodes = (
(125.62,106.8,l),
(59.07,45.01,l),
(253.96,40.25,l)
);
},
{
closed = 1;
nodes = (
(69.72,242.73,o),
(83.98,401.17,o),
(103,474.06,c),
(63.38,483.57,o),
(6.34,548.53,o),
(6.34,548.53,c),
(0,396.42,o),
(45.95,249.07,o),
(76.06,222.13,c)
);
},
{
closed = 1;
nodes = (
(475.35,114.39,o),
(367.61,65.27,o),
(228.18,190.44,c),
(266.21,225.3,o),
(415.88,245.48,o),
(467.43,174.6,cs),
(492.78,139.74,o),
(475.35,114.39,o),
(475.35,114.39,c)
);
},
{
closed = 1;
nodes = (
(185.74,328.82,o),
(245.6,429.7,o),
(237.68,502.58,c),
(255.11,455.05,o),
(304.23,386.91,o),
(320.07,369.49,c),
(259.86,337.8,o),
(236.09,333.05,o),
(196.48,295.02,c)
);
},
{
closed = 1;
nodes = (
(599.72,39.92,o),
(645.67,39.92,o),
(645.67,39.92,c),
(649.71,74.03,o),
(643.34,113.08,o),
(632.99,154,c),
(634.57,119.14,o),
(598.13,58.93,o),
(568.03,39.92,c)
);
},
{
closed = 1;
nodes = (
(602.55,422.9,o),
(615.23,560.75,o),
(615.23,560.75,c),
(415.14,573.88,l),
(415.14,573.88,o),
(575.62,376.95,o),
(604.14,348.43,c)
);
}
);
width = 700;
}
);
note = B;
unicode = 66;
},
{
glyphname = C;
layers = (
{
layerId = m01;
shapes = (
{
closed = 1;
nodes = (
(353.77,280.62,o),
(310.05,328.74,o),
(286.35,371.32,c),
(273.09,246.59,o),
(363.45,239.75,o),
(388.08,257.32,c)
);
},
{
closed = 1;
nodes = (
(527.1,21.5,o),
(613.98,33.44,o),
(613.98,33.44,c),
(600.95,181.24,l),
(585.02,127.49,o),
(525.65,46.88,o),
(480.76,25.98,c)
);
},
{
closed = 1;
nodes = (
(599.51,478.34,o),
(595.16,570.9,o),
(595.16,570.9,c),
(453.25,572.39,l),
(486.56,526.11,o),
(574.89,451.46,o),
(603.85,439.52,c)
);
},
{
closed = 1;
nodes = (
(0,20.76,l),
(0,20.76,o),
(79.64,20.76,o),
(133.22,19.27,c),
(65.16,62.56,o),
(18.82,161.1,o),
(7.24,228.28,c)
);
},
{
closed = 1;
nodes = (
(237.49,592.55,o),
(36.2,583.59,o),
(36.2,583.59,c),
(30.41,398.47,l),
(69.51,455.2,o),
(309.89,588.07,o),
(309.89,588.07,c)
);
},
{
closed = 1;
nodes = (
(206.77,198.98,o),
(171.54,304.37,o),
(181.68,383.49,c),
(200.5,416.33,o),
(275.87,458.93,o),
(309.9,468.63,c),
(332.34,415.63,o),
(367.24,348.39,o),
(436.02,309.57,c),
(475.72,319.15,o),
(540.14,366.36,o),
(556.07,409.66,c),
(493.93,444.29,o),
(431.02,495.96,o),
(390.26,574.63,c),
(223.01,523.12,o),
(150.57,469.51,o),
(49.24,342.48,c),
(49.24,145.42,o),
(125.99,68.53,o),
(209.98,33.45,cs),
(280.21,4.11,o),
(381.58,8.07,o),
(448.91,66.29,cs),
(504.23,114.13,o),
(568.38,196.17,o),
(577.06,279.03,c),
(552.24,227.12,o),
(423.43,80.27,o),
(311.34,141.68,cs)
);
}
);
width = 664;
}
);
note = C;
unicode = 67;
},
{
glyphname = D;
lastChange = "2024-06-01 14:10:28 +0000";
layers = (
{
layerId = m01;
shapes = (
{
closed = 1;
nodes = (
(377.1,7.09,o),
(453.13,41.29,o),
(510.91,78.6,c),
(510.91,78.6,o),
(489.62,97.25,o),
(486.58,100.36,c),
(632.55,147,o),
(653.84,277.57,o),
(632.55,327.31,cs),
(611.26,377.05,o),
(486.58,523.17,o),
(410.55,582.24,c),
(361.89,538.72,o),
(45.62,364.61,o),
(45.62,364.61,c),
(45.62,364.61,o),
(54.74,342.85,o),
(76.03,339.74,cs),
(113.27,334.3,o),
(167.26,352.18,o),
(167.26,352.18,c),
(170.3,196.73,l),
(82.11,212.28,o),
(0,140.77,o),
(0,38.18,c),
(106.44,234.04,o),
(298.03,81.7,o),
(377.1,7.09,c)
);
},
{
closed = 1;
nodes = (
(282.82,16.41,l),
(282.82,16.41,o),
(200.71,86.36,o),
(164.22,86.36,cs),
(127.73,86.36,o),
(68.43,16.41,o),
(68.43,16.41,c)
);
},
{
closed = 1;
nodes = (
(301.07,594.68,l),
(36.5,576.03,l),
(36.5,576.03,o),
(30.42,473.43,o),
(42.58,420.58,c)
);
},
{
closed = 1;
nodes = (
(437.92,143.88,o),
(374.06,193.62,o),
(313.23,202.95,c),
(304.11,423.68,l),
(401.42,436.12,o),
(521.83,307.74,o),
(532.19,246.47,cs),
(543.09,182.06,o),
(507.28,149.59,o),
(437.92,143.88,c)
);
},
{
closed = 1;
nodes = (
(599.11,22.63,o),
(717.71,35.07,o),
(717.71,35.07,c),
(702.5,249.59,l),
(690.34,156.32,o),
(614.31,72.38,o),
(523.08,25.75,c)
);
},
{
closed = 1;
nodes = (
(699.47,576.03,l),
(477.47,597.79,l),
(513.96,579.14,o),
(681.22,445.45,o),
(708.59,380.16,c)
);
}
);
width = 768;
}
);
note = D;
unicode = 68;
},
{
glyphname = E;
layers = (
{
layerId = m01;
shapes = (
{
closed = 1;
nodes = (
(0,36.95,l),
(0,36.95,o),
(79.27,12.41,o),
(154.76,10.53,c),
(92.48,65.26,o),
(45.3,146.41,o),
(18.88,221.9,c)
);
},
{
closed = 1;
nodes = (
(645.45,33.17,l),
(630.35,153.96,l),
(445.4,29.4,l)
);
},
{
closed = 1;
nodes = (
(641.67,531.41,l),
(509.56,395.53,l),
(622.8,308.72,l)
);
},
{
closed = 1;
nodes = (
(490.34,276.75,o),
(458.58,276.75,o),
(458.58,276.75,c),
(479.75,160.3,l),
(433.88,114.43,o),
(373.89,100.31,o),
(335.07,128.54,cs),
(311.13,145.95,o),
(280.5,222.51,o),
(258.86,316.67,c),
(285.07,314.69,o),
(316.89,299.18,o),
(342.12,276.75,cs),
(373.88,248.52,o),
(423.28,290.87,o),
(458.57,347.32,c),
(345.65,386.14,l),
(256.61,326.78,l),
(246.96,370.67,o),
(239.38,417.89,o),
(235.32,464.6,c),
(440.93,403.79,l),
(440.93,403.79,o),
(575.02,463.78,o),
(617.37,580.23,c),
(511.51,548.47,l),
(222.15,594.34,l),
(222.15,594.34,o),
(119.82,555.52,o),
(28.07,477.89,c),
(190.39,477.89,l),
(193.47,476.98,l),
(70.42,396.73,l),
(52.78,248.52,o),
(109.24,57.97,o),
(260.97,19.15,cs),
(331.54,-2.02,o),
(550.33,117.96,o),
(575.03,206.17,c)
);
}
);
width = 695;
}
);
note = E;
unicode = 69;
},
{
glyphname = F;
layers = (
{
layerId = m01;
shapes = (
{
closed = 1;
nodes = (
(425.1,2.79,o),
(584.81,13.37,o),
(584.81,13.37,c),
(584.81,13.37,o),
(593.47,89.38,o),
(575.19,198.1,c),
(547.29,171.16,o),
(385.65,18.18,o),
(385.65,18.18,c)
);
},
{
closed = 1;
nodes = (
(584.81,461.81,o),
(603.32,587.66,o),
(603.32,587.66,c),
(377.54,583.96,l),
(377.54,583.96,o),
(529.07,449.94,o),
(581.11,428.51,c)
);
},
{
closed = 1;
nodes = (
(11.11,595.06,l),
(11.11,595.06,o),
(0.01,480.32,o),
(22.21,461.81,c),
(66.63,461.81,o),
(181.37,524.73,o),
(203.58,583.95,c)
);
},
{
closed = 1;
nodes = (
(325.72,147.2,l),
(325.72,147.2,o),
(377.54,221.23,o),
(433.06,254.54,c),
(433.06,254.54,o),
(285.01,269.35,o),
(229.49,269.35,c),
(229.49,269.35,o),
(233.19,358.18,o),
(244.3,417.4,c),
(296.12,369.28,o),
(318.33,350.78,o),
(355.34,343.37,cs),
(392.35,335.97,o),
(425.66,332.27,o),
(495.99,409.99,c),
(429.37,443.3,o),
(407.16,450.7,o),
(307.22,580.25,c),
(288.71,461.81,o),
(170.27,402.59,o),
(44.43,361.87,c),
(70.34,324.86,o),
(96.25,313.75,o),
(96.25,313.75,c),
(107.35,58.36,l),
(107.35,58.36,o),
(37.02,58.36,o),
(14.82,17.65,c),
(353.91,11.44,l),
(353.91,11.44,o),
(295.22,49.92,o),
(240.6,54.66,c),
(240.6,54.66,o),
(225.79,232.32,o),
(222.09,232.32,cs),
(255.4,228.62,o),
(296.12,202.71,o),
(325.73,147.19,cs)
);
}
);
width = 653;
}
);
note = F;
unicode = 70;
},
{
glyphname = G;
lastChange = "2024-06-01 14:10:28 +0000";
layers = (
{
layerId = m01;
shapes = (
{
closed = 1;
nodes = (
(366.52,105.58,o),
(592.32,266.1,o),
(578.26,309.83,cs),
(578.25,309.84,ls),
(569.82,336.07,o),
(548.27,314.53,o),
(548.27,314.53,c),
(548.27,314.53,o),
(514.11,283.8,o),
(507.55,278.18,c),
(395.08,241.32,o),
(287.23,356.62,o),
(190.33,322.01,c),
(186.91,351.7,o),
(189.18,381.99,o),
(197.25,414.29,c),
(219.17,445.44,o),
(252.62,466.2,o),
(252.62,466.2,c),
(268.77,413.14,o),
(350.67,348.54,o),
(482.17,398.14,c),
(401.42,421.21,o),
(352.4,526.47,o),
(333.37,574.63,c),
(333.37,574.63,o),
(81.68,384.79,o),
(59.2,360.43,c),
(59.2,236.76,o),
(57.33,98.66,o),
(117.29,45.62,cs),
(176.49,-6.75,o),
(252.21,-8.72,o),
(344.03,32.5,c)
);
},
{
closed = 1;
nodes = (
(59.99,34.77,o),
(19.62,121.28,o),
(19.62,178.96,c),
(2.31,29,l),
(2.31,29,o),
(55.37,19.77,o),
(102.67,18.62,c)
);
},
{
closed = 1;
nodes = (
(276.84,72.85,o),
(191.48,132.83,o),
(198.4,242.41,c),
(263,222.8,o),
(302.22,157.05,o),
(418.72,180.12,c),
(363.35,143.21,o),
(342.59,100.53,o),
(342.59,100.53,c)
);
},
{
closed = 1;
nodes = (
(29.98,452.36,o),
(248,601.16,o),
(248,601.16,c),
(-0.01,589.62,l),
(-0.01,589.62,o),
(-0.01,482.34,o),
(6.91,421.21,c)
);
},
{
closed = 1;
nodes = (
(610.22,85.53,o),
(594.07,215.88,o),
(594.07,215.88,c),
(427.96,37.08,ls),
(427.97,37.08,o),
(576.78,35.93,o),
(615.99,29.01,c)
);
},
{
closed = 1;
nodes = (
(592.92,462.73,o),
(571,557.32,o),
(591.76,601.15,c),
(517.93,590.77,o),
(376.05,597.69,o),
(376.05,597.69,c),
(376.05,597.69,o),
(546.77,406.21,o),
(583.68,390.06,c)
);
}
);
width = 666;
}
);
note = G;
unicode = 71;
},
{
glyphname = H;
layers = (
{
layerId = m01;
shapes = (
{
closed = 1;
nodes = (
(173.94,304.58,l),
(141.08,308.45,l),
(90.83,256.27,l),
(148.81,240.81,l),
(173.93,304.59,l)
);
},
{
closed = 1;
nodes = (
(593.31,30.16,l),
(593.31,30.16,o),
(421.31,88.14,o),
(357.53,119.06,c),
(357.53,119.06,o),
(293.75,39.82,o),
(249.3,16.63,c)
);
},
{
closed = 1;
nodes = (
(-0.01,20.49,l),
(-0.01,20.49,o),
(75.36,-2.7,o),
(121.74,1.16,c),
(88.89,24.35,o),
(7.72,138.38,o),
(7.72,138.38,c)
);
},
{
closed = 1;
nodes = (
(50.24,410.88,o),
(110.15,459.2,o),
(170.06,484.32,c),
(148.8,580.95,l),
(27.05,569.35,l),
(27.05,569.35,o),
(38.65,447.6,o),
(34.78,374.16,c)
);
},
{
closed = 1;
nodes = (
(610.7,443.73,o),
(660.95,401.21,o),
(626.16,362.56,cs),
(617.18,352.58,o),
(586.87,354.37,o),
(546,362.08,c),
(554.1,462.59,o),
(561.34,563.31,o),
(560.45,592.54,c),
(525.66,584.81,o),
(429.03,577.08,o),
(429.03,577.08,c),
(429.03,577.08,o),
(422.58,490.46,o),
(414.63,393.95,c),
(392.97,399.77,o),
(371.19,405.68,o),
(350,411.31,c),
(343.86,510.97,o),
(332.4,604.14,o),
(332.4,604.14,c),
(204.85,592.54,l),
(216.8,534.58,o),
(224.02,483.86,o),
(227.66,439.45,c),
(206.59,442.63,o),
(190.45,443.2,o),
(181.66,439.86,cs),
(125.61,418.6,o),
(94.69,378.02,o),
(96.62,304.58,c),
(98.55,331.64,o),
(141.07,347.1,o),
(158.46,352.9,cs),
(163,354.41,o),
(190.85,349.23,o),
(229.88,340.68,c),
(222.44,181.55,o),
(157.93,143.08,o),
(146.86,140.31,cs),
(131.4,136.44,o),
(81.15,144.18,o),
(23.17,244.67,c),
(23.17,244.67,o),
(46.36,97.79,o),
(131.4,55.27,cs),
(216.44,12.75,o),
(295.67,93.92,o),
(340.12,186.69,cs),
(350.73,208.83,o),
(354.12,256.41,o),
(353.74,311.76,c),
(371.45,307.47,o),
(389.2,303.13,o),
(406.52,298.86,c),
(400.46,230.47,o),
(394.45,169.93,o),
(390.37,146.1,c),
(454.15,122.91,o),
(616.49,63,o),
(616.49,63,c),
(608.76,244.67,l),
(583.64,178.96,o),
(560.44,140.31,o),
(543.05,124.85,c),
(525.66,124.85,o),
(525.66,124.85,o),
(525.66,124.85,c),
(525.66,124.85,o),
(531.3,186.9,o),
(538.04,266.13,c),
(550.31,263.07,o),
(558.87,260.95,o),
(562.38,260.14,cs),
(612.63,248.54,o),
(657.08,293,o),
(670.61,337.44,cs),
(684.14,381.89,o),
(643.55,437.94,o),
(610.7,443.73,c)
);
}
);
width = 734;
}
);
note = H;
unicode = 72;
},
{
glyphname = I;
lastChange = "2024-06-01 14:10:28 +0000";
layers = (
{
layerId = m01;
shapes = (
{
closed = 1;
nodes = (
(349.21,-3.53,o),
(490.04,19.97,o),
(554.26,202.11,c),
(490.08,120.3,o),
(414.11,89.31,o),
(374.54,94.07,cs),
(374.54,94.05,ls),
(349.25,97.09,o),
(329.88,115.89,o),
(319.12,129.11,c),
(364.61,181.5,o),
(396.61,237.48,o),
(412.14,275.7,cs),
(442.4,350.17,o),
(440.76,451.94,o),
(410.42,600.08,c),
(129.31,465.34,l),
(128.27,408.77,o),
(132.24,344.91,o),
(141.77,282.79,c),
(82.16,278.17,o),
(45.01,271.72,o),
(10.96,255.44,c),
(10.96,255.44,o),
(63.49,62.04,o),
(155.48,8.05,c),
(185.26,19.43,o),
(212.84,35.45,o),
(238.29,54.06,c),
(250.91,36.5,o),
(272.49,13.13,o),
(301.37,6.86,cs)
);
},
{
closed = 1;
nodes = (
(15.63,102.26,l),
(7.82,77.25,o),
(0,22.55,o),
(0,22.55,c),
(95.34,11.61,l)
);
},
{
closed = 1;
nodes = (
(171.38,78.63,o),
(124.18,124.01,o),
(77.52,176.65,cs),
(77.51,176.66,ls),
(88.57,196.63,o),
(114.79,241.66,o),
(143.17,274.27,c),
(155.81,196.36,o),
(177.24,121.81,o),
(208.77,68.62,c)
);
},
{
closed = 1;
nodes = (
(235.83,244.73,o),
(236.71,475.25,o),
(236.71,475.25,c),
(328.65,482.4,l),
(352.56,416.85,o),
(352.94,250.71,o),
(303.15,165.31,c)
);
},
{
closed = 1;
nodes = (
(216.49,567.88,l),
(10.18,567.88,l),
(16.43,450.66,l)
);
},
{
closed = 1;
nodes = (
(528.9,19.05,o),
(636.74,31.56,o),
(636.74,31.56,c),
(624.24,219.12,l),
(624.24,219.12,o),
(528.9,58.14,o),
(499.2,22.19,c)
);
},
{
closed = 1;
nodes = (
(627.37,326.96,l),
(619.55,595.79,l),
(485.14,595.79,l),
(539.84,361.35,l),
(539.84,361.35,o),
(516.4,294.14,o),
(453.88,187.86,c)
);
}
);
width = 687;
}
);
note = I;
unicode = 73;
},
{
glyphname = J;
layers = (
{
layerId = m01;
shapes = (
{
closed = 1;
nodes = (
(527.35,4.74,o),
(575.02,4.74,o),
(575.02,4.74,c),
(586.94,162.65,l),
(563.1,82.21,o),
(464.78,10.7,o),
(434.99,1.76,c)
);
},
{
closed = 1;
nodes = (
(607.8,341.41,o),
(616.74,511.24,o),
(616.74,511.24,c),
(494.58,427.82,l),
(539.27,374.19,o),
(583.96,317.58,o),
(598.86,266.93,c)
);
},
{
closed = 1;
nodes = (
(2.98,454.64,l),
(125.14,585.73,l),
(0,585.73,l)
);
},
{
closed = 1;
nodes = (
(426.06,496.35,l),
(220.48,377.17,l),
(309.86,317.58,o),
(351.57,234.16,o),
(333.7,192.45,cs),
(315.82,150.74,o),
(268.15,79.23,o),
(202.61,67.32,c),
(232.4,156.7,o),
(137.06,252.04,o),
(137.06,252.04,c),
(122.16,189.47,o),
(95.35,129.88,o),
(77.47,91.15,c),
(125.14,37.52,o),
(203.26,-10.08,o),
(256.24,-4.19,cs),
(309.87,1.77,o),
(458.84,37.52,o),
(488.63,210.33,cs),
(518.42,383.14,o),
(390.31,409.95,o),
(390.31,409.95,c),
(619.72,609.57,l),
(217.5,600.63,l),
(50.65,451.66,l)
);
}
);
width = 670;
}
);
note = J;
unicode = 74;
},
{
glyphname = K;
layers = (
{
layerId = m01;
shapes = (
{
closed = 1;
nodes = (
(683.78,437.15,o),
(680.56,579.67,o),
(680.56,579.67,c),
(565.35,455.03,l),
(605.57,443.86,o),
(655.2,398.28,o),
(679.31,352.24,c)
);
},
{
closed = 1;
nodes = (
(98.33,573.46,o),
(0.01,575.69,o),
(0.01,575.69,c),
(6.71,450.56,l),
(51.4,457.26,o),
(160.89,539.94,o),
(167.6,589.1,c)
);
},
{
closed = 1;
nodes = (
(391.85,39.7,l),
(391.85,39.7,o),
(301.92,113.04,o),
(284.04,119.74,cs),
(266.16,126.44,o),
(24.15,48.42,o),
(24.15,48.42,c)
);
},
{
closed = 1;
nodes = (
(643.56,77.32,ls),
(603.34,124.25,o),
(635.59,224.66,o),
(632.39,263.1,cs),
(625.69,343.54,o),
(580.99,410.58,o),
(529.6,419.52,cs),
(478.2,428.46,o),
(437.98,423.99,o),
(437.98,423.99,c),
(493.84,477.62,o),
(572.05,589.35,o),
(572.05,589.35,c),
(353.06,569.24,l),
(417.86,470.92,l),
(281.13,317.78,l),
(276.33,429.69,o),
(265.91,557.82,o),
(252.5,575.7,c),
(178.76,448.33,o),
(46.92,396.94,o),
(2.23,388,c),
(78.21,352.25,o),
(138.54,392.47,o),
(138.54,392.47,c),
(136.69,244.54,l),
(136.69,244.54,o),
(78.21,170.2,o),
(49.16,141.15,c),
(49.16,141.15,o),
(201.11,189.12,o),
(283.79,177.94,c),
(284.36,202.58,o),
(283.9,239.02,o),
(282.57,279.98,c),
(306.38,295.05,o),
(342.36,316.15,o),
(370.94,325.68,cs),
(399.38,335.16,o),
(442.45,310.04,o),
(444.68,245.24,cs),
(446.91,180.44,o),
(441.08,171.8,o),
(446.91,128.73,cs),
(452.15,90.06,o),
(541.3,-9.69,o),
(681.54,21.47,cs),
(761.98,39.35,o),
(744.11,144.37,o),
(744.11,144.37,c),
(717.29,81.8,o),
(663.12,54.51,o),
(643.55,77.33,cs)
);
}
);
width = 812;
}
);
note = K;
unicode = 75;
},
{
glyphname = L;
layers = (
{
layerId = m01;
shapes = (
{
closed = 1;
nodes = (
(11.9,320.81,l),
(5.54,66.24,l),
(67.06,100.18,l),
(60.7,308.08,l)
);
},
{
closed = 1;
nodes = (
(8.5,569.01,l),
(33.96,488.4,l),
(97.6,579.62,l)
);
},
{
closed = 1;
nodes = (
(606.62,59.08,l),
(636.31,207.03,o),
(645.27,387.65,o),
(625.84,511.96,c),
(543.1,412.25,l)
);
},
{
closed = 1;
nodes = (
(384,301.72,o),
(477.34,556.29,o),
(591.9,588.11,c),
(462.49,594.47,o),
(314,573.26,o),
(314,573.26,c),
(314,573.26,o),
(345.82,297.48,o),
(341.58,259.29,c)
);
},
{
closed = 1;
nodes = (
(241.88,110.79,o),
(260.97,458.7,o),
(222.78,585.98,c),
(188.84,520.22,o),
(72.16,407.78,o),
(0.03,435.36,c),
(33.97,369.6,o),
(74.28,380.2,o),
(112.47,384.45,c),
(118.83,354.75,o),
(118.83,157.46,o),
(114.59,66.24,c),
(114.59,66.24,o),
(44.58,51.39,o),
(6.4,28.06,c),
(21.25,6.85,o),
(375.53,13.21,o),
(528.27,42.91,c),
(536.76,83.22,o),
(557.97,185.04,o),
(513.42,299.6,c),
(503.78,200.92,o),
(339.78,84.9,o),
(260.97,83.22,c)
);
}
);
width = 695;
}
);
note = L;
unicode = 76;
},
{
glyphname = M;
layers = (
{
layerId = m01;
shapes = (
{
closed = 1;
nodes = (
(802.74,368.75,l),
(747.72,146.18,l),
(805.24,93.66,l)
);
},
{
closed = 1;
nodes = (
(57.52,578.81,l),
(57.52,578.81,o),
(67.52,478.78,o),
(75.03,443.77,c),
(125.04,463.78,o),
(192.56,563.81,o),
(197.57,588.81,c)
);
},
{
closed = 1;
nodes = (
(377.62,566.3,l),
(457.64,468.77,l),
(605.18,571.3,l)
);
},
{
closed = 1;
nodes = (
(607.68,521.29,ls),
(505.15,461.27,o),
(433.83,383.92,o),
(433.83,383.92,c),
(277.59,611.32,l),
(270.09,536.3,o),
(170.06,376.25,o),
(0.01,366.25,c),
(37.52,323.74,o),
(110.04,313.73,o),
(110.04,313.73,c),
(92.53,113.67,l),
(41.75,75.03,o),
(19.59,34.42,o),
(0,-6.36,c),
(247.57,11.14,l),
(255.52,396.4,l),
(357.6,278.72,l),
(320.09,206.2,o),
(365.1,-11.37,o),
(457.63,-6.36,c),
(412.62,38.65,o),
(372.61,228.71,o),
(530.15,336.24,c),
(532.65,291.23,o),
(550.16,31.15,o),
(550.16,31.15,c),
(792.73,31.15,l),
(755.22,56.16,o),
(715.21,111.17,o),
(715.21,111.17,c),
(690.2,468.78,l),
(715.21,493.79,o),
(747.72,501.29,o),
(805.23,486.29,c),
(812.73,531.3,o),
(714.82,584.02,o),
(607.67,521.3,cs)
);
}
);
width = 863;
}
);
note = M;
unicode = 77;
},
{
glyphname = N;
layers = (
{
layerId = m01;
shapes = (
{
closed = 1;
nodes = (
(343.83,52.75,l),
(232.55,60.4,o),
(149.16,39.59,o),
(70.72,13.74,c),
(507.2,6.42,l),
(453.37,24.02,o),
(386.9,71.52,o),
(351.14,123.46,c)
);
},
{
closed = 1;
nodes = (
(451.48,602.41,o),
(324.32,591.64,o),
(324.32,591.64,c),
(324.32,591.64,o),
(416.98,467.28,o),
(416.98,459.96,cs),
(416.98,452.64,o),
(465.5,564.78,o),
(522.55,596.88,c)
);
},
{
closed = 1;
nodes = (
(194.81,586.29,o),
(31.44,566.78,o),
(31.44,566.78,c),
(44.71,450.67,l),
(125.94,446.45,o),
(248.46,500.94,o),
(233.83,586.28,c)
);
},
{
closed = 1;
nodes = (
(648.63,225.86,ls),
(690.08,167.34,o),
(634,91.75,o),
(558.41,145.39,cs),
(482.82,199.04,o),
(502.33,359.97,o),
(526.71,430.69,cs),
(551.09,501.4,o),
(616.93,506.28,o),
(646.19,479.46,cs),
(675.45,452.64,o),
(685.21,420.94,o),
(660.82,403.87,c),
(646.19,428.26,o),
(609.61,435.57,o),
(592.54,425.82,cs),
(575.47,416.07,o),
(553.52,369.74,o),
(607.17,347.79,cs),
(660.82,325.84,o),
(716.9,377.05,o),
(716.9,445.33,cs),
(716.9,513.61,o),
(665.69,564.81,o),
(602.29,557.5,cs),
(561.04,552.74,o),
(473.05,525.8,o),
(441.35,342.92,c),
(441.35,342.92,o),
(346.25,472.16,o),
(268.22,535.56,c),
(229.2,355.12,o),
(87.78,381.94,o),
(39.01,416.08,c),
(70.71,360,o),
(107.29,340.49,o),
(107.29,340.49,c),
(107.29,340.49,o),
(117.04,181.99,o),
(121.92,133.22,c),
(70.71,128.34,o),
(0,82.01,o),
(26.82,33.24,c),
(65.84,103.95,o),
(151.18,101.52,o),
(297.49,82.01,c),
(273.1,150.29,o),
(243.84,260.02,o),
(243.84,367.31,c),
(243.84,367.31,o),
(377.95,103.96,o),
(504.75,55.19,cs),
(631.55,6.42,o),
(690.07,72.26,o),
(712.02,113.71,cs),
(733.97,155.16,o),
(716.9,225.88,o),
(648.62,225.88,cs)
);
}
);
width = 784;
}
);
note = N;
unicode = 78;
},
{
glyphname = O;
lastChange = "2024-06-01 14:10:28 +0000";
layers = (
{
layerId = m01;
shapes = (
{
closed = 1;
nodes = (
(431.47,0.46,o),
(593.44,207.72,o),
(626.9,298.3,c),
(619.4,354.49,o),
(550.39,449.47,o),
(457.2,474.62,cs),
(457.19,474.61,ls),
(463.81,598.86,o),
(397.82,603.97,o),
(342.19,609.47,cs),
(277.45,615.87,o),
(194.46,547.66,o),
(190.46,486.4,c),
(188.1,473.73,o),
(186.85,456.52,o),
(191.38,438.49,c),
(239.12,422.08,o),
(292.07,486.79,o),
(292.07,486.79,c),
(292.07,486.79,o),
(290.78,524.91,o),
(260.31,525.66,cs),
(248.61,525.95,o),
(236.48,523.24,o),
(225.93,519.81,c),
(245.17,533.49,o),
(269.26,543.83,o),
(291.87,547.24,cs),
(335.28,553.79,o),
(412.12,572.2,o),
(393.97,483.79,cs),
(375.82,395.37,o),
(206.89,294.34,o),
(101.92,347.71,c),
(170.45,175.27,l),
(170.45,175.27,o),
(121.63,160.44,o),
(98.36,148.32,cs),
(77.52,137.47,o),
(59.63,110.33,o),
(53.2,88.5,c),
(187.06,141.06,o),
(315.13,94.74,o),
(431.47,0.46,c)
);
},
{
closed = 1;
nodes = (
(344.88,-5.02,o),
(310.83,41.52,o),
(217.39,59.06,cs),
(123.95,76.6,o),
(64.13,34.91,o),
(40.2,2.49,c),
(344.88,-5.02,l)
);
},
{
closed = 1;
nodes = (
(43.43,191.73,o),
(102.32,205.51,o),
(102.32,205.51,c),
(60.24,394.43,l),
(60.25,394.44,l),
(116.61,408.28,l),
(105.26,453.29,o),
(110.12,494.96,o),
(171.43,582.31,c),
(122.86,573.35,o),
(0.01,571.41,o),
(0.01,571.41,c),
(20.16,179.61,l)
);
},
{
closed = 1;
nodes = (
(415.55,181.26,o),
(360.11,207.66,o),
(310.06,193.82,c),
(299.59,318.54,l),
(323.41,330.04,o),
(343.75,347.92,o),
(367.52,375.26,c),
(417.55,351.18,o),
(472.24,314.28,o),
(499.55,217.13,c),
(499.55,217.13,o),
(472.74,174.63,o),
(451.77,154.83,c)
);
},
{
closed = 1;
nodes = (
(635.8,196.67,l),
(500.34,8.92,l),
(627.37,8.33,l)
);
},
{
closed = 1;
nodes = (
(618.63,473.79,o),
(616.05,550.03,o),
(616.05,550.03,c),
(506.62,545.11,l),
(506.62,545.11,o),
(609.84,438.47,o),
(619.25,415.38,c)
);
}
);
width = 686;
}
);
note = O;
unicode = 79;
},
{
glyphname = P;
layers = (
{
layerId = m01;
shapes = (
{
closed = 1;
nodes = (
(526.87,24.94,o),
(671.29,22.27,o),
(671.29,22.27,c),
(647.22,193.44,l),
(647.22,193.44,o),
(494.77,99.83,o),
(460.01,22.27,c)
);
},
{
closed = 1;
nodes = (
(513.5,570.54,l),
(655.25,442.16,l),
(660.6,573.21,l)
);
},
{
closed = 1;
nodes = (
(27.24,52.96,l),
(106.5,152.75,l),
(29.72,228.2,l)
);
},
{
closed = 1;
nodes = (
(0,598.16,l),
(7.43,435.09,l),
(331.89,593.3,l),
(-0.01,598.17,l)
);
},
{
closed = 1;
nodes = (
(400.29,286.16,o),
(365.66,267.54,o),
(331.67,237.38,c),
(323.41,301.83,o),
(318.36,361.55,o),
(315.37,402.64,c),
(335.18,363.7,o),
(394.63,330.43,o),
(430.96,301.23,c)
);
},
{
closed = 1;
nodes = (
(592.2,285.71,o),
(542.51,203.74,o),
(516.17,177.39,c),
(556.29,180.06,o),
(665.94,295.07,o),
(658.83,383.16,c),
(658.83,383.16,o),
(523.43,477.27,o),
(437.57,568.14,c),
(364.92,499.99,o),
(186.58,402.63,o),
(14.86,399.39,c),
(44.58,366.94,o),
(100.72,353.96,o),
(150.26,344.22,c),
(150.26,308.52,o),
(166.77,149.5,o),
(173.38,100.83,c),
(116.41,91.91,o),
(56.97,50.53,o),
(74.31,16.45,c),
(122.61,68.91,o),
(241.39,71.57,o),
(378.13,6.71,c),
(361.25,59.23,o),
(348.6,122.35,o),
(339.08,184.53,c),
(388.99,232.86,o),
(492.07,293.69,o),
(567.8,335.23,c)
);
}
);
width = 721;
}
);
note = P;
unicode = 80;
},
{
glyphname = Q;
layers = (
{
layerId = m01;
shapes = (
{
closed = 1;
nodes = (
(0,593.52,l),
(32.03,463.17,l),
(32.03,463.17,o),
(139.78,568.02,o),
(148.51,593.52,c)
);
},
{
closed = 1;
nodes = (
(576.58,361.15,l),
(439.71,182.62,l),
(579.49,174.12,l)
);
},
{
closed = 1;
nodes = (
(299.93,602.02,l),
(299.93,602.02,o),
(253.34,610.52,o),
(215.48,576.52,c),
(142.68,449,o),
(2.9,406.49,o),
(2.9,406.49,c),
(26.2,202.46,l),
(26.2,202.46,o),
(143.94,177.03,o),
(235.58,171.97,c),
(221.4,151.74,o),
(209.25,134.94,o),
(203.83,128.78,c),
(157.24,134.45,o),
(72.79,137.28,o),
(72.79,137.28,c),
(78.61,80.61,o),
(93.17,32.43,o),
(93.17,32.43,c),
(209.65,-12.91,o),
(474.65,4.09,o),
(544.54,9.76,c),
(567.84,52.27,o),
(582.4,134.45,o),
(582.4,134.45,c),
(524.16,128.78,o),
(285.37,131.62,o),
(244.6,128.78,c),
(302.84,210.96,o),
(404.76,355.48,o),
(404.76,355.48,c),
(404.76,355.48,o),
(270.8,414.99,o),
(259.16,437.66,c),
(238.77,389.49,o),
(227.13,352.65,o),
(241.69,332.81,cs),
(256.25,312.97,o),
(308.67,278.97,o),
(308.67,278.97,c),
(308.67,278.97,o),
(301.35,268.05,o),
(290.67,252.27,c),
(253.85,263.15,o),
(161.32,290.31,o),
(154.33,290.31,cs),
(145.59,290.31,o),
(142.68,383.82,o),
(145.59,449,c),
(145.59,449,o),
(195.1,502.84,o),
(221.3,511.34,cs),
(247.51,519.84,o),
(442.62,420.66,o),
(442.62,420.66,c),
(521.24,440.5,l),
(343.45,174.87,l),
(410.58,171.29,l),
(509.59,369.66,l),
(509.59,369.66,o),
(573.65,443.34,o),
(596.95,519.85,c),
(524.15,528.35,o),
(299.92,602.03,o),
(299.92,602.03,c)
);
}
);
width = 647;
}
);
note = Q;
unicode = 81;
},
{
glyphname = R;
lastChange = "2024-06-01 14:10:28 +0000";
layers = (
{
layerId = m01;
shapes = (
{
closed = 1;
nodes = (
(267.09,91.33,o),
(252.85,168.3,o),
(248.37,209.01,c),
(248.37,209.01,o),
(507.76,-5.68,o),
(589.37,28.48,cs),
(704.37,76.62,o),
(669.6,239.76,o),
(669.6,239.76,c),
(669.6,239.76,o),
(616.35,203.02,o),
(542.56,194.29,cs),
(530.08,192.81,o),
(405.16,232.72,o),
(351.77,300.73,c),
(351.77,300.73,o),
(553.03,373.23,o),
(600.07,426.97,c),
(554.6,503.19,o),
(478.38,559.36,o),
(391.46,571.39,c),
(239.01,413.6,l),
(239.01,413.6,o),
(233.66,507.21,o),
(225.94,550.33,c),
(183.51,521.68,o),
(38.96,406.67,o),
(38.96,406.67,c),
(97.53,397.29,l),
(113.98,151.63,l),
(113.98,151.63,o),
(80.43,152.2,o),
(0.76,153.54,c),
(0.76,153.54,o),
(182.85,98.01,o),
(279.13,28.48,c)
);
},
{
closed = 1;
nodes = (
(200.14,36.92,l),
(4.32,115.72,l),
(2.34,-1.69,l),
(2.35,-1.7,l)
);
},
{
closed = 1;
nodes = (
(22.97,453.07,o),
(171.01,526.08,o),
(201.49,592.68,c),
(121.96,602.41,o),
(0,583.49,o),
(0,583.49,c),
(22.97,453.07,l)
);
},
{
closed = 1;
nodes = (
(236.54,318.49,o),
(239.57,329.51,o),
(239.02,372.15,c),
(336.64,433.66,l),
(364.82,419.27,o),
(385.83,398.42,o),
(400.83,372.15,c),
(239.02,282.55,l)
);
},
{
closed = 1;
nodes = (
(645.55,298.59,o),
(635.73,365.15,o),
(635.73,365.15,c),
(530.05,316.59,l),
(530.05,316.59,o),
(599.09,251.45,o),
(625.65,264.65,c)
);
},
{
closed = 1;
nodes = (
(667.77,526.68,o),
(656.53,606.56,o),
(656.53,606.56,c),
(471.88,601.28,l),
(471.88,601.28,o),
(592.15,519.56,o),
(666.78,467.97,c)
);
}
);
width = 754;
}
);
note = R;
unicode = 82;
},
{
glyphname = S;
layers = (
{
layerId = m01;
shapes = (
{
closed = 1;
nodes = (
(675.95,3.14,l),
(675.95,3.14,o),
(680.25,189.76,o),
(656.36,288.36,c),
(641.29,199.66,o),
(555.89,22.45,o),
(438.92,-0.5,c)
);
},
{
closed = 1;
nodes = (
(0,19.39,o),
(125.96,11.98,o),
(221,21.52,c),
(184.63,33.42,o),
(64.29,119.52,o),
(7.31,142.73,c),
(0,19.4,ls)
);
},
{
closed = 1;
nodes = (
(156.86,615.26,o),
(27.17,593.88,o),
(27.17,593.88,c),
(27.17,593.88,o),
(28.03,478.12,o),
(24.94,396.71,c),
(47.75,443.18,o),
(219.39,599.73,o),
(219.39,599.73,c)
);
},
{
closed = 1;
nodes = (
(498.24,110.95,ls),
(540.04,165.45,o),
(575.07,287.97,o),
(575.07,287.97,c),
(542.99,366.3,o),
(409.54,418.3,o),
(258.57,384.12,cs),
(223.21,376.11,o),
(196.63,414.51,o),
(204.16,428.25,cs),
(211.69,441.99,o),
(333.27,505.14,o),
(527.89,399.6,c),
(562.24,442.69,o),
(606.99,513.44,o),
(615.85,562.18,c),
(565.34,524.37,o),
(372.16,606.49,o),
(322.63,594.35,cs),
(273.1,582.21,o),
(91.26,409.18,o),
(84.02,341.69,c),
(84.02,341.69,o),
(151.54,273.69,o),
(187.99,248.94,c),
(266.41,283.35,o),
(413.33,275.43,o),
(490.1,204.75,c),
(483.84,162.92,o),
(471.55,147.03,o),
(437.82,120.27,c),
(350.92,170.31,o),
(236.2,226.08,o),
(196.53,227.58,cs),
(156.86,229.09,o),
(50.52,198.07,o),
(26.13,170.96,c),
(91.65,173.15,o),
(233.43,29.89,o),
(315.01,24.45,cs),
(396.59,19.01,o),
(456.44,56.47,o),
(498.23,110.97,cs)
);
}
);
width = 730;
}
);
note = S;
unicode = 83;
},
{
glyphname = T;
lastChange = "2024-06-01 14:10:28 +0000";
layers = (
{
layerId = m01;
shapes = (
{
closed = 1;
nodes = (
(415.58,27.54,o),
(541.73,141.5,o),
(545.44,224.38,c),
(545.44,224.38,o),
(467.94,134.31,o),
(376.21,136.22,c),
(370.06,262.11,l),
(430.42,324.53,l),
(364.84,368.92,l),
(361.01,447.37,l),
(442.17,426.08,o),
(526.89,401.24,o),
(526.89,401.24,c),
(526.89,401.24,o),
(593.67,487.57,o),
(671.59,584.27,c),
(597.38,570.46,l),
(597.38,570.46,o),
(270.88,608.45,o),
(241.19,580.82,cs),
(211.51,553.19,o),
(126.17,442.69,o),
(126.17,442.69,c),
(126.17,442.69,o),
(181.82,473.77,o),
(218.93,477.22,cs),
(228.09,478.07,o),
(251.54,473.86,o),
(281.61,467.05,c),
(172.47,420.24,o),
(87.19,338.86,o),
(92.79,255.47,cs),
(100.21,144.96,o),
(244.91,44.81,o),
(244.91,44.81,c),
(244.91,44.81,o),
(341.38,6.82,o),
(378.48,17.18,cs)
);
},
{
closed = 1;
nodes = (
(37.11,-0.08,o),
(141,-0.08,o),
(230.04,-0.08,c),
(230.04,-0.08,o),
(51.95,141.51,o),
(33.4,220.93,c),
(37.11,-0.08,l)
);
},
{
closed = 1;
nodes = (
(255.24,160.93,o),
(222.63,348.71,o),
(222.63,348.71,c),
(222.63,348.71,o),
(269.82,410.06,o),
(325.12,456.59,c),
(325.72,456.44,o),
(326.32,456.29,o),
(326.92,456.14,c),
(334.51,361.19,l),
(293.12,307.27,l),
(341.66,271.6,l),
(352.24,139.2,l)
);
},
{
closed = 1;
nodes = (
(40.82,453.04,o),
(148.42,598.08,o),
(148.42,598.08,c),
(0.01,604.99,l),
(0.01,604.99,o),
(22.27,491.03,o),
(33.4,432.32,c)
);
},
{
closed = 1;
nodes = (
(601.07,182.94,l),
(593.65,138.05,o),
(530.57,48.26,o),
(489.76,17.18,c),
(512.02,10.26,o),
(656.72,13.72,o),
(656.72,13.72,c)
);
},
{
closed = 1;
nodes = (
(638.17,504.09,l),
(556.54,376.32,l),
(638.17,234.73,l)
);
}
);
width = 722;
}
);
note = T;
unicode = 84;
},
{
glyphname = U;
layers = (
{
layerId = m01;
shapes = (
{
closed = 1;
nodes = (
(403.16,591.33,l),
(652.57,468.33,l),
(649.15,591.33,l)
);
},
{
closed = 1;
nodes = (
(-0.01,24.17,l),
(-0.01,24.17,o),
(119.57,0.25,o),
(184.49,24.17,c),
(109.32,51.5,o),
(47.82,116.42,o),
(10.24,188.17,c)
);
},
{
closed = 1;
nodes = (
(13.65,577.66,l),
(13.65,577.66,o),
(10.23,461.49,o),
(34.15,379.5,c),
(64.9,451.25,o),
(208.4,570.83,o),
(208.4,570.83,c)
);
},
{
closed = 1;
nodes = (
(645.73,430.76,l),
(451.93,481.6,l),
(457.81,266.75,l),
(457.81,266.75,o),
(355.31,232.58,o),
(297.23,150.58,c),
(184.48,277,o),
(215.23,413.66,o),
(327.98,553.74,c),
(181.07,502.49,o),
(99.07,423.91,o),
(78.57,294.08,cs),
(58.07,164.25,o),
(194.74,54.92,o),
(293.82,44.67,c),
(293.82,44.67,o),
(379.24,177.92,o),
(454.4,205.25,c),
(457.82,61.75,l),
(457.82,61.75,o),
(618.4,48.08,o),
(693.57,61.75,c),
(669.65,72,o),
(597.9,106.17,o),
(597.9,106.17,c),
(591.07,386.34,l)
);
}
);
width = 744;
}
);
note = U;
unicode = 85;
},
{
glyphname = V;
layers = (
{
layerId = m01;
shapes = (
{
closed = 1;
nodes = (
(287.56,55.54,l),
(40.66,418.63,l),
(49.37,43.92,l)
);
},
{
closed = 1;
nodes = (
(621.59,67.16,l),
(586.73,377.96,l),
(447.31,70.06,l)
);
},
{
closed = 1;
nodes = (
(412.45,558.05,ls),
(400.83,499.96,o),
(461.83,453.48,o),
(499.59,441.86,c),
(479.26,380.86,o),
(418.26,238.53,o),
(418.26,238.53,c),
(214.93,587.09,l),
(-0.02,529,l),
(-0.02,529,o),
(90.02,517.38,o),
(113.26,497.05,cs),
(136.5,476.72,o),
(374.68,17.77,o),
(374.68,17.77,c),
(618.67,581.28,l),
(618.67,581.28,o),
(461.82,604.52,o),
(412.44,558.04,cs)
);
}
);
width = 672;
}
);
note = V;
unicode = 86;
},
{
glyphname = W;
layers = (
{
layerId = m01;
shapes = (
{
closed = 1;
nodes = (
(412.61,52.64,l),
(369.82,181.02,l),
(310.98,71.37,l)
);
},
{
closed = 1;
nodes = (
(772.65,65.47,l),
(754.89,421.3,l),
(599.87,58.03,l)
);
},
{
closed = 1;
nodes = (
(176.06,66.31,l),
(13.05,478.21,l),
(0.01,62.04,l)
);
},
{
closed = 1;
nodes = (
(576.05,557.87,o),
(542.87,544.54,o),
(521.63,513.27,c),
(583.78,504.93,o),
(609.05,410.02,o),
(599.87,394.96,c),
(544.45,234.42,l),
(544.45,234.42,o),
(475.99,505.66,o),
(443.39,540.61,cs),
(410.79,575.56,o),
(244.52,542.29,o),
(244.52,542.29,c),
(283.64,504.25,o),
(309.72,501.63,o),
(309.72,501.63,c),
(335.8,440.53,l),
(290.16,325.72,l),
(290.16,325.72,o),
(205.4,564.08,o),
(185.84,589.6,cs),
(166.28,615.12,o),
(0.01,581.85,o),
(0.01,581.85,c),
(78.25,528.52,l),
(254.3,42.21,l),
(378.18,353.85,l),
(489.02,5.66,l),
(489.02,5.66,o),
(733.53,446.93,o),
(736.79,515.23,cs),
(740.05,583.53,o),
(652.91,584.65,o),
(612.91,570.71,cs)
);
}
);
width = 823;
}
);
note = W;
unicode = 87;
},
{
glyphname = X;
layers = (
{
layerId = m01;
shapes = (
{
closed = 1;
nodes = (
(55.11,434.1,l),
(57.01,140.79,l),
(57.01,140.79,o),
(148.13,246.52,o),
(197.32,294.27,c)
);
},
{
closed = 1;
nodes = (
(621.22,270.4,o),
(610.9,437.51,o),
(610.9,437.51,c),
(479.27,321.55,l),
(479.27,321.55,o),
(583.26,198.77,o),
(604.28,185.13,c)
);
},
{
closed = 1;
nodes = (
(520.75,427.14,o),
(630.51,540.55,o),
(629.55,563.7,c),
(546.51,601.22,o),
(375.9,594.4,o),
(329.28,567.11,c),
(329.28,567.11,o),
(390.5,488.67,o),
(432.7,457.97,c),
(428.77,449.41,o),
(401.85,420,o),
(363.7,380.44,c),
(300.71,464.07,o),
(242.42,537.54,o),
(227.95,543.24,cs),
(193.28,556.88,o),
(0,529.6,o),
(0,529.6,c),
(72.82,512.83,o),
(174.42,397.89,o),
(266.38,281.34,c),
(157.57,171.62,o),
(35.41,50.04,o),
(33.96,38.47,c),
(88.95,28.24,o),
(282.79,41.88,o),
(282.79,41.88,c),
(282.79,41.88,o),
(192.14,89.63,o),
(188.16,103.27,c),
(200.66,116.31,o),
(250.24,163.34,o),
(311.88,222.73,c),
(387.62,123.86,o),
(451.33,35.92,o),
(478.04,21.42,cs),
(540.84,-12.69,o),
(665.65,103.27,o),
(665.65,103.27,c),
(593.89,106.68,o),
(548.7,127.14,o),
(548.7,127.14,c),
(548.7,127.14,o),
(482.58,220.14,o),
(410.08,318.23,c)
);
}
);
width = 716;
}
);
note = X;
unicode = 88;
},
{
glyphname = Y;
layers = (
{
layerId = m01;
shapes = (
{
closed = 1;
nodes = (
(73.51,334.18,o),
(20.58,432.23,o),
(20.58,432.23,c),
(35.28,189.83,l),
(194.06,252.47,l),
(194.06,252.47,o),
(108.79,296.05,o),
(91.15,315.11,cs)
);
},
{
closed = 1;
nodes = (
(332.26,80.88,o),
(376.37,40.02,o),
(376.37,40.02,c),
(596.89,50.91,l),
(558.67,383.19,l),
(558.67,383.19,o),
(332.26,146.23,o),
(332.26,113.55,cs)
);
},
{
closed = 1;
nodes = (
(355.78,519.37,o),
(405.77,467.62,o),
(467.52,481.24,c),
(467.52,481.24,o),
(423.42,410.43,o),
(388.13,375.02,c),
(373.43,375.02,o),
(314.62,396.81,o),
(314.62,396.81,c),
(314.62,396.81,o),
(197.01,571.12,o),
(173.48,579.29,cs),
(149.96,587.46,o),
(35.29,554.78,o),
(0,530.27,c),
(64.69,519.37,l),
(179.36,320.54,l),
(179.36,320.54,o),
(244.05,287.86,o),
(311.67,282.41,c),
(73.5,29.11,l),
(73.5,29.11,o),
(261.68,18.22,o),
(314.61,29.11,c),
(314.61,29.11,o),
(246.98,67.24,o),
(235.22,108.1,c),
(235.22,108.1,o),
(570.42,483.96,o),
(605.7,565.67,c),
(605.7,565.67,o),
(379.29,584.73,o),
(323.43,565.67,c)
);
}
);
width = 656;
}
);
note = Y;
unicode = 89;
},
{
glyphname = Z;
layers = (
{
layerId = m01;
shapes = (
{
closed = 1;
nodes = (
(15.52,456.12,o),
(0,288.46,o),
(21.73,213.95,c),
(55.88,235.68,o),
(152.13,328.83,o),
(152.13,328.83,c),
(15.52,456.12,l)
);
},
{
closed = 1;
nodes = (
(583.69,344.35,o),
(561.95,499.59,o),
(561.95,499.59,c),
(397.4,300.89,l),
(397.4,300.89,o),
(527.8,313.31,o),
(580.58,238.8,c)
);
},
{
closed = 1;
nodes = (
(440.87,232.59,ls),
(378.78,203.09,o),
(289.3,223.16,o),
(235.96,198.44,c),
(235.96,198.44,o),
(537.12,524.44,o),
(549.54,586.53,c),
(394.3,564.8,o),
(27.95,574.11,o),
(27.95,574.11,c),
(37.27,530.64,o),
(127.3,412.66,o),
(127.3,412.66,c),
(127.3,412.66,o),
(285.64,434.39,o),
(378.78,453.02,c),
(298.06,384.72,o),
(204.91,254.32,o),
(68.31,154.96,c),
(37.8,88.56,o),
(49.68,18.35,o),
(49.68,18.35,c),
(225.96,174.01,o),
(261.75,-15.19,o),
(586.8,27.66,c),
(633.37,83.54,o),
(440.88,232.57,o),
(440.88,232.57,c)
);
}
);
width = 683;
}
);
note = Z;
unicode = 90;
},
{
glyphname = a;
layers = (
{
layerId = m01;
shapes = (
{
closed = 1;
nodes = (
(168.44,79.61,l),
(112.34,117.01,l),
(112.34,117.01,o),
(112.34,79.61,o),
(98.32,60.91,c)
);
},
{
closed = 1;
nodes = (
(608.41,560.73,o),
(557.92,562.1,o),
(506.19,556.81,c),
(560.83,466.22,o),
(610.26,350.82,o),
(657.43,224.63,c),
(668.77,348.98,o),
(673.69,464.61,o),
(657.43,551.41,c)
);
},
{
closed = 1;
nodes = (
(329.11,486.59,l),
(380.81,459.58,o),
(410.15,350.36,o),
(440.27,255.68,c),
(383.4,306.99,o),
(344.62,331.3,o),
(305.84,356.95,c)
);
},
{
closed = 1;
nodes = (
(577.29,286.74,o),
(505.28,455.68,o),
(440.27,562.21,c),
(399.78,575.47,o),
(336.45,576.38,o),
(276.74,569.13,c),
(181.43,569.39,o),
(51.26,545.67,o),
(51.26,545.67,c),
(46.94,495.1,o),
(51.26,401.18,o),
(51.26,401.18,c),
(75.65,430.91,o),
(113.67,497.45,o),
(178.42,537.18,c),
(214.29,540.71,o),
(267.18,526.18,o),
(283.86,512.24,c),
(283.86,512.24,o),
(261.88,410.96,o),
(254.13,386.66,c),
(193.38,425.82,o),
(95.14,412.32,o),
(55.07,339.4,c),
(55.07,339.4,o),
(66.68,304.49,o),
(65.41,304.29,c),
(106.26,345.44,o),
(173.09,352.85,o),
(225.7,311.04,c),
(225.7,311.04,o),
(210.19,254.33,o),
(189.51,213.82,c),
(167.54,232.72,o),
(117.12,247.58,o),
(69.3,201.67,cs),
(0.01,135.15,o),
(75.76,32.88,o),
(75.76,32.88,c),
(75.76,32.88,o),
(36.78,146.97,o),
(109.37,165.21,cs),
(146.59,174.56,o),
(197.27,46.38,o),
(264.49,32.88,cs),
(331.71,19.38,o),
(386,86.89,o),
(371.78,151.71,c),
(340.76,130.11,o),
(290.35,143.61,o),
(243.81,194.92,c),
(243.81,194.92,o),
(260.61,255.68,o),
(270.95,288.09,c),
(402.8,225.97,o),
(448.04,116.6,o),
(582.47,65.28,cs),
(716.9,13.97,o),
(781.53,113.89,o),
(784.12,224.62,c),
(760.85,184.11,o),
(683.3,151.7,o),
(595.4,178.71,c)
);
}
);
width = 834;
}
);
note = a;
unicode = 97;
},
{
glyphname = b;
lastChange = "2024-06-01 14:10:28 +0000";
layers = (
{
layerId = m01;
shapes = (
{
closed = 1;
nodes = (
(538.73,48.65,o),
(623.15,172.57,o),
(601.76,246.25,cs),
(601.76,246.23,ls),
(580.37,319.91,o),
(455.54,348.09,o),
(360.48,324.33,c),
(412.77,359.98,o),
(436.53,402.76,o),
(436.53,417.02,cs),
(436.53,431.28,o),
(367.61,516.84,o),
(348.59,566.75,cs),
(329.58,616.66,o),
(165.58,535.85,o),
(113.3,552.49,c),
(103.79,526.35,o),
(118.05,500.2,o),
(186.98,512.09,c),
(203.62,424.15,o),
(98.25,342.55,o),
(125.19,204.71,c),
(53.89,202.33,o),
(10.79,131.3,o),
(30.12,77.16,c),
(72.9,138.95,o),
(108.55,143.71,o),
(165.59,129.45,cs),
(222.63,115.19,o),
(339.09,1.11,o),
(438.91,24.88,cs)
);
},
{
closed = 1;
nodes = (
(125.62,106.8,l),
(59.07,45.01,l),
(253.96,40.25,l)
);
},
{
closed = 1;
nodes = (
(69.72,242.73,o),
(83.98,401.17,o),
(103,474.06,c),
(63.38,483.57,o),
(6.34,548.53,o),
(6.34,548.53,c),
(0,396.42,o),
(45.95,249.07,o),
(76.06,222.13,c)
);
},
{
closed = 1;
nodes = (
(475.35,114.39,o),
(367.61,65.27,o),
(228.18,190.44,c),
(266.21,225.3,o),
(415.88,245.48,o),
(467.43,174.6,cs),
(492.78,139.74,o),
(475.35,114.39,o),
(475.35,114.39,c)
);
},
{
closed = 1;
nodes = (
(185.74,328.82,o),
(245.6,429.7,o),
(237.68,502.58,c),
(255.11,455.05,o),
(304.23,386.91,o),
(320.07,369.49,c),
(259.86,337.8,o),
(236.09,333.05,o),
(196.48,295.02,c)
);
},
{
closed = 1;
nodes = (
(599.72,39.92,o),
(645.67,39.92,o),
(645.67,39.92,c),
(649.71,74.03,o),
(643.34,113.08,o),
(632.99,154,c),
(634.57,119.14,o),
(598.13,58.93,o),
(568.03,39.92,c)
);
},
{
closed = 1;
nodes = (
(602.55,422.9,o),
(615.23,560.75,o),
(615.23,560.75,c),
(415.14,573.88,l),
(415.14,573.88,o),
(575.62,376.95,o),
(604.14,348.43,c)
);
}
);
width = 700;
}
);
note = b;
unicode = 98;
},
{
glyphname = c;
layers = (
{
layerId = m01;
shapes = (
{
closed = 1;
nodes = (
(353.77,280.62,o),
(310.05,328.74,o),
(286.35,371.32,c),
(273.09,246.59,o),
(363.45,239.75,o),
(388.08,257.32,c)
);
},
{
closed = 1;
nodes = (
(527.1,21.5,o),
(613.98,33.44,o),
(613.98,33.44,c),
(600.95,181.24,l),
(585.02,127.49,o),
(525.65,46.88,o),
(480.76,25.98,c)
);
},
{
closed = 1;
nodes = (
(599.51,478.34,o),
(595.16,570.9,o),
(595.16,570.9,c),
(453.25,572.39,l),
(486.56,526.11,o),
(574.89,451.46,o),
(603.85,439.52,c)
);
},
{
closed = 1;
nodes = (
(0,20.76,l),
(0,20.76,o),
(79.64,20.76,o),
(133.22,19.27,c),
(65.16,62.56,o),
(18.82,161.1,o),
(7.24,228.28,c)
);
},
{
closed = 1;
nodes = (
(237.49,592.55,o),
(36.2,583.59,o),
(36.2,583.59,c),
(30.41,398.47,l),
(69.51,455.2,o),
(309.89,588.07,o),
(309.89,588.07,c)
);
},
{
closed = 1;
nodes = (
(206.77,198.98,o),
(171.54,304.37,o),
(181.68,383.49,c),
(200.5,416.33,o),
(275.87,458.93,o),
(309.9,468.63,c),
(332.34,415.63,o),
(367.24,348.39,o),
(436.02,309.57,c),
(475.72,319.15,o),
(540.14,366.36,o),
(556.07,409.66,c),
(493.93,444.29,o),
(431.02,495.96,o),
(390.26,574.63,c),
(223.01,523.12,o),
(150.57,469.51,o),
(49.24,342.48,c),
(49.24,145.42,o),
(125.99,68.53,o),
(209.98,33.45,cs),
(280.21,4.11,o),
(381.58,8.07,o),
(448.91,66.29,cs),
(504.23,114.13,o),
(568.38,196.17,o),
(577.06,279.03,c),
(552.24,227.12,o),
(423.43,80.27,o),
(311.34,141.68,cs)
);
}
);
width = 664;
}
);
note = c;
unicode = 99;
},
{
glyphname = d;
lastChange = "2024-06-01 14:10:28 +0000";
layers = (
{
layerId = m01;
shapes = (
{
closed = 1;
nodes = (
(377.1,7.09,o),
(453.13,41.29,o),
(510.91,78.6,c),
(510.91,78.6,o),
(489.62,97.25,o),
(486.58,100.36,c),
(632.55,147,o),
(653.84,277.57,o),
(632.55,327.31,cs),
(611.26,377.05,o),
(486.58,523.17,o),
(410.55,582.24,c),
(361.89,538.72,o),
(45.62,364.61,o),
(45.62,364.61,c),
(45.62,364.61,o),
(54.74,342.85,o),
(76.03,339.74,cs),
(113.27,334.3,o),
(167.26,352.18,o),
(167.26,352.18,c),
(170.3,196.73,l),
(82.11,212.28,o),
(0,140.77,o),
(0,38.18,c),
(106.44,234.04,o),
(298.03,81.7,o),
(377.1,7.09,c)
);
},
{
closed = 1;
nodes = (
(282.82,16.41,l),
(282.82,16.41,o),
(200.71,86.36,o),
(164.22,86.36,cs),
(127.73,86.36,o),
(68.43,16.41,o),
(68.43,16.41,c)
);
},
{
closed = 1;
nodes = (
(301.07,594.68,l),
(36.5,576.03,l),
(36.5,576.03,o),
(30.42,473.43,o),
(42.58,420.58,c)
);
},
{
closed = 1;
nodes = (
(437.92,143.88,o),
(374.06,193.62,o),
(313.23,202.95,c),
(304.11,423.68,l),
(401.42,436.12,o),
(521.83,307.74,o),
(532.19,246.47,cs),
(543.09,182.06,o),
(507.28,149.59,o),
(437.92,143.88,c)
);
},
{
closed = 1;
nodes = (
(599.11,22.63,o),
(717.71,35.07,o),
(717.71,35.07,c),
(702.5,249.59,l),
(690.34,156.32,o),
(614.31,72.38,o),
(523.08,25.75,c)
);
},
{
closed = 1;
nodes = (
(699.47,576.03,l),
(477.47,597.79,l),
(513.96,579.14,o),
(681.22,445.45,o),
(708.59,380.16,c)
);
}
);
width = 768;
}
);
note = d;
unicode = 100;
},
{
glyphname = e;
layers = (
{
layerId = m01;
shapes = (
{
closed = 1;
nodes = (
(0,36.95,l),
(0,36.95,o),
(79.27,12.41,o),
(154.76,10.53,c),
(92.48,65.26,o),
(45.3,146.41,o),
(18.88,221.9,c)
);
},
{
closed = 1;
nodes = (
(645.45,33.17,l),
(630.35,153.96,l),
(445.4,29.4,l)
);
},
{
closed = 1;
nodes = (
(641.67,531.41,l),
(509.56,395.53,l),
(622.8,308.72,l)
);
},
{
closed = 1;
nodes = (
(490.34,276.75,o),
(458.58,276.75,o),
(458.58,276.75,c),
(479.75,160.3,l),
(433.88,114.43,o),
(373.89,100.31,o),
(335.07,128.54,cs),
(311.13,145.95,o),
(280.5,222.51,o),
(258.86,316.67,c),
(285.07,314.69,o),
(316.89,299.18,o),
(342.12,276.75,cs),
(373.88,248.52,o),
(423.28,290.87,o),
(458.57,347.32,c),
(345.65,386.14,l),
(256.61,326.78,l),
(246.96,370.67,o),
(239.38,417.89,o),
(235.32,464.6,c),
(440.93,403.79,l),
(440.93,403.79,o),
(575.02,463.78,o),
(617.37,580.23,c),
(511.51,548.47,l),
(222.15,594.34,l),
(222.15,594.34,o),
(119.82,555.52,o),
(28.07,477.89,c),
(190.39,477.89,l),
(193.47,476.98,l),
(70.42,396.73,l),
(52.78,248.52,o),
(109.24,57.97,o),
(260.97,19.15,cs),
(331.54,-2.02,o),
(550.33,117.96,o),
(575.03,206.17,c)
);
}
);
width = 695;
}
);
note = e;
unicode = 101;
},
{
glyphname = f;
layers = (
{
layerId = m01;
shapes = (
{
closed = 1;
nodes = (
(425.1,2.79,o),
(584.81,13.37,o),
(584.81,13.37,c),
(584.81,13.37,o),
(593.47,89.38,o),
(575.19,198.1,c),
(547.29,171.16,o),
(385.65,18.18,o),
(385.65,18.18,c)
);
},
{
closed = 1;
nodes = (
(584.81,461.81,o),
(603.32,587.66,o),
(603.32,587.66,c),
(377.54,583.96,l),
(377.54,583.96,o),
(529.07,449.94,o),
(581.11,428.51,c)
);
},
{
closed = 1;
nodes = (
(11.11,595.06,l),
(11.11,595.06,o),
(0.01,480.32,o),
(22.21,461.81,c),
(66.63,461.81,o),
(181.37,524.73,o),
(203.58,583.95,c)
);
},
{
closed = 1;
nodes = (
(325.72,147.2,l),
(325.72,147.2,o),
(377.54,221.23,o),
(433.06,254.54,c),
(433.06,254.54,o),
(285.01,269.35,o),
(229.49,269.35,c),
(229.49,269.35,o),
(233.19,358.18,o),
(244.3,417.4,c),
(296.12,369.28,o),
(318.33,350.78,o),
(355.34,343.37,cs),
(392.35,335.97,o),
(425.66,332.27,o),
(495.99,409.99,c),
(429.37,443.3,o),
(407.16,450.7,o),
(307.22,580.25,c),
(288.71,461.81,o),
(170.27,402.59,o),
(44.43,361.87,c),
(70.34,324.86,o),
(96.25,313.75,o),
(96.25,313.75,c),
(107.35,58.36,l),
(107.35,58.36,o),
(37.02,58.36,o),
(14.82,17.65,c),
(353.91,11.44,l),
(353.91,11.44,o),
(295.22,49.92,o),
(240.6,54.66,c),
(240.6,54.66,o),
(225.79,232.32,o),
(222.09,232.32,cs),
(255.4,228.62,o),
(296.12,202.71,o),
(325.73,147.19,cs)
);
}
);
width = 653;
}
);
note = f;
unicode = 102;
},
{
glyphname = g;
lastChange = "2024-06-01 14:10:28 +0000";
layers = (
{
layerId = m01;
shapes = (
{
closed = 1;
nodes = (
(366.52,105.58,o),
(592.32,266.1,o),
(578.26,309.83,cs),
(578.25,309.84,ls),
(569.82,336.07,o),
(548.27,314.53,o),
(548.27,314.53,c),
(548.27,314.53,o),
(514.11,283.8,o),
(507.55,278.18,c),
(395.08,241.32,o),
(287.23,356.62,o),
(190.33,322.01,c),
(186.91,351.7,o),
(189.18,381.99,o),
(197.25,414.29,c),
(219.17,445.44,o),
(252.62,466.2,o),
(252.62,466.2,c),
(268.77,413.14,o),
(350.67,348.54,o),
(482.17,398.14,c),
(401.42,421.21,o),
(352.4,526.47,o),
(333.37,574.63,c),
(333.37,574.63,o),
(81.68,384.79,o),
(59.2,360.43,c),
(59.2,236.76,o),
(57.33,98.66,o),
(117.29,45.62,cs),
(176.49,-6.75,o),
(252.21,-8.72,o),
(344.03,32.5,c)
);
},
{
closed = 1;
nodes = (
(59.99,34.77,o),
(19.62,121.28,o),
(19.62,178.96,c),
(2.31,29,l),
(2.31,29,o),
(55.37,19.77,o),
(102.67,18.62,c)
);
},
{
closed = 1;
nodes = (
(276.84,72.85,o),
(191.48,132.83,o),
(198.4,242.41,c),
(263,222.8,o),
(302.22,157.05,o),
(418.72,180.12,c),
(363.35,143.21,o),
(342.59,100.53,o),
(342.59,100.53,c)
);
},
{
closed = 1;
nodes = (
(29.98,452.36,o),
(248,601.16,o),
(248,601.16,c),
(-0.01,589.62,l),
(-0.01,589.62,o),
(-0.01,482.34,o),
(6.91,421.21,c)
);
},
{
closed = 1;
nodes = (
(610.22,85.53,o),
(594.07,215.88,o),
(594.07,215.88,c),
(427.96,37.08,ls),
(427.97,37.08,o),
(576.78,35.93,o),
(615.99,29.01,c)
);
},
{
closed = 1;
nodes = (
(592.92,462.73,o),
(571,557.32,o),
(591.76,601.15,c),
(517.93,590.77,o),
(376.05,597.69,o),
(376.05,597.69,c),
(376.05,597.69,o),
(546.77,406.21,o),
(583.68,390.06,c)
);
}
);
width = 666;
}
);
note = g;
unicode = 103;
},
{
glyphname = h;
layers = (
{
layerId = m01;
shapes = (
{
closed = 1;
nodes = (
(173.94,304.58,l),
(141.08,308.45,l),
(90.83,256.27,l),
(148.81,240.81,l),
(173.93,304.59,l)
);
},
{
closed = 1;
nodes = (
(593.31,30.16,l),
(593.31,30.16,o),
(421.31,88.14,o),
(357.53,119.06,c),
(357.53,119.06,o),
(293.75,39.82,o),
(249.3,16.63,c)
);
},
{
closed = 1;
nodes = (
(-0.01,20.49,l),
(-0.01,20.49,o),
(75.36,-2.7,o),
(121.74,1.16,c),
(88.89,24.35,o),
(7.72,138.38,o),
(7.72,138.38,c)
);
},
{
closed = 1;
nodes = (
(50.24,410.88,o),
(110.15,459.2,o),
(170.06,484.32,c),
(148.8,580.95,l),
(27.05,569.35,l),
(27.05,569.35,o),
(38.65,447.6,o),
(34.78,374.16,c)
);
},
{
closed = 1;
nodes = (
(610.7,443.73,o),
(660.95,401.21,o),
(626.16,362.56,cs),
(617.18,352.58,o),
(586.87,354.37,o),
(546,362.08,c),
(554.1,462.59,o),
(561.34,563.31,o),
(560.45,592.54,c),
(525.66,584.81,o),
(429.03,577.08,o),
(429.03,577.08,c),
(429.03,577.08,o),
(422.58,490.46,o),
(414.63,393.95,c),
(392.97,399.77,o),
(371.19,405.68,o),
(350,411.31,c),
(343.86,510.97,o),
(332.4,604.14,o),
(332.4,604.14,c),
(204.85,592.54,l),
(216.8,534.58,o),
(224.02,483.86,o),
(227.66,439.45,c),
(206.59,442.63,o),
(190.45,443.2,o),
(181.66,439.86,cs),
(125.61,418.6,o),
(94.69,378.02,o),
(96.62,304.58,c),
(98.55,331.64,o),
(141.07,347.1,o),
(158.46,352.9,cs),
(163,354.41,o),
(190.85,349.23,o),
(229.88,340.68,c),
(222.44,181.55,o),
(157.93,143.08,o),
(146.86,140.31,cs),
(131.4,136.44,o),
(81.15,144.18,o),
(23.17,244.67,c),
(23.17,244.67,o),
(46.36,97.79,o),
(131.4,55.27,cs),
(216.44,12.75,o),
(295.67,93.92,o),
(340.12,186.69,cs),
(350.73,208.83,o),
(354.12,256.41,o),
(353.74,311.76,c),
(371.45,307.47,o),
(389.2,303.13,o),
(406.52,298.86,c),
(400.46,230.47,o),
(394.45,169.93,o),
(390.37,146.1,c),
(454.15,122.91,o),
(616.49,63,o),
(616.49,63,c),
(608.76,244.67,l),
(583.64,178.96,o),
(560.44,140.31,o),
(543.05,124.85,c),
(525.66,124.85,o),
(525.66,124.85,o),
(525.66,124.85,c),
(525.66,124.85,o),
(531.3,186.9,o),
(538.04,266.13,c),
(550.31,263.07,o),
(558.87,260.95,o),
(562.38,260.14,cs),
(612.63,248.54,o),
(657.08,293,o),
(670.61,337.44,cs),
(684.14,381.89,o),
(643.55,437.94,o),
(610.7,443.73,c)
);
}
);
width = 734;
}
);
note = h;
unicode = 104;
},
{
glyphname = i;
lastChange = "2024-06-01 14:10:28 +0000";
layers = (
{
layerId = m01;
shapes = (
{
closed = 1;
nodes = (
(349.21,-3.53,o),
(490.04,19.97,o),
(554.26,202.11,c),
(490.08,120.3,o),
(414.11,89.31,o),
(374.54,94.07,cs),
(374.54,94.05,ls),
(349.25,97.09,o),
(329.88,115.89,o),
(319.12,129.11,c),
(364.61,181.5,o),
(396.61,237.48,o),
(412.14,275.7,cs),
(442.4,350.17,o),
(440.76,451.94,o),
(410.42,600.08,c),
(129.31,465.34,l),
(128.27,408.77,o),
(132.24,344.91,o),
(141.77,282.79,c),
(82.16,278.17,o),
(45.01,271.72,o),
(10.96,255.44,c),
(10.96,255.44,o),
(63.49,62.04,o),
(155.48,8.05,c),
(185.26,19.43,o),
(212.84,35.45,o),
(238.29,54.06,c),
(250.91,36.5,o),
(272.49,13.13,o),
(301.37,6.86,cs)
);
},
{
closed = 1;
nodes = (
(15.63,102.26,l),
(7.82,77.25,o),
(0,22.55,o),
(0,22.55,c),
(95.34,11.61,l)
);
},
{
closed = 1;
nodes = (
(171.38,78.63,o),
(124.18,124.01,o),
(77.52,176.65,cs),
(77.51,176.66,ls),
(88.57,196.63,o),
(114.79,241.66,o),
(143.17,274.27,c),
(155.81,196.36,o),
(177.24,121.81,o),
(208.77,68.62,c)
);
},
{
closed = 1;
nodes = (
(235.83,244.73,o),
(236.71,475.25,o),
(236.71,475.25,c),
(328.65,482.4,l),
(352.56,416.85,o),
(352.94,250.71,o),
(303.15,165.31,c)
);
},
{
closed = 1;
nodes = (
(216.49,567.88,l),
(10.18,567.88,l),
(16.43,450.66,l)
);
},
{
closed = 1;
nodes = (
(528.9,19.05,o),
(636.74,31.56,o),
(636.74,31.56,c),
(624.24,219.12,l),
(624.24,219.12,o),
(528.9,58.14,o),
(499.2,22.19,c)
);
},
{
closed = 1;
nodes = (
(627.37,326.96,l),
(619.55,595.79,l),
(485.14,595.79,l),
(539.84,361.35,l),
(539.84,361.35,o),
(516.4,294.14,o),
(453.88,187.86,c)
);
}
);
width = 687;
}
);
note = i;
unicode = 105;
},
{
glyphname = j;
layers = (
{
layerId = m01;
shapes = (
{
closed = 1;
nodes = (
(527.35,4.74,o),
(575.02,4.74,o),
(575.02,4.74,c),
(586.94,162.65,l),
(563.1,82.21,o),
(464.78,10.7,o),
(434.99,1.76,c)
);
},
{
closed = 1;
nodes = (
(607.8,341.41,o),
(616.74,511.24,o),
(616.74,511.24,c),
(494.58,427.82,l),
(539.27,374.19,o),
(583.96,317.58,o),
(598.86,266.93,c)
);
},
{
closed = 1;
nodes = (
(2.98,454.64,l),
(125.14,585.73,l),
(0,585.73,l)
);
},
{
closed = 1;
nodes = (
(426.06,496.35,l),
(220.48,377.17,l),
(309.86,317.58,o),
(351.57,234.16,o),
(333.7,192.45,cs),
(315.82,150.74,o),
(268.15,79.23,o),
(202.61,67.32,c),
(232.4,156.7,o),
(137.06,252.04,o),
(137.06,252.04,c),
(122.16,189.47,o),
(95.35,129.88,o),
(77.47,91.15,c),
(125.14,37.52,o),
(203.26,-10.08,o),
(256.24,-4.19,cs),
(309.87,1.77,o),
(458.84,37.52,o),
(488.63,210.33,cs),
(518.42,383.14,o),
(390.31,409.95,o),
(390.31,409.95,c),
(619.72,609.57,l),
(217.5,600.63,l),
(50.65,451.66,l)
);
}
);
width = 670;
}
);
note = j;
unicode = 106;
},
{
glyphname = k;
layers = (
{
layerId = m01;
shapes = (
{
closed = 1;
nodes = (
(683.78,437.15,o),
(680.56,579.67,o),
(680.56,579.67,c),
(565.35,455.03,l),
(605.57,443.86,o),
(655.2,398.28,o),
(679.31,352.24,c)
);
},
{
closed = 1;
nodes = (
(98.33,573.46,o),
(0.01,575.69,o),
(0.01,575.69,c),
(6.71,450.56,l),
(51.4,457.26,o),
(160.89,539.94,o),
(167.6,589.1,c)
);
},
{
closed = 1;
nodes = (
(391.85,39.7,l),
(391.85,39.7,o),
(301.92,113.04,o),
(284.04,119.74,cs),
(266.16,126.44,o),
(24.15,48.42,o),
(24.15,48.42,c)
);
},
{
closed = 1;
nodes = (
(643.56,77.32,ls),
(603.34,124.25,o),
(635.59,224.66,o),
(632.39,263.1,cs),
(625.69,343.54,o),
(580.99,410.58,o),
(529.6,419.52,cs),
(478.2,428.46,o),
(437.98,423.99,o),
(437.98,423.99,c),
(493.84,477.62,o),
(572.05,589.35,o),
(572.05,589.35,c),
(353.06,569.24,l),
(417.86,470.92,l),
(281.13,317.78,l),
(276.33,429.69,o),
(265.91,557.82,o),
(252.5,575.7,c),
(178.76,448.33,o),
(46.92,396.94,o),
(2.23,388,c),
(78.21,352.25,o),
(138.54,392.47,o),
(138.54,392.47,c),
(136.69,244.54,l),
(136.69,244.54,o),
(78.21,170.2,o),
(49.16,141.15,c),
(49.16,141.15,o),
(201.11,189.12,o),
(283.79,177.94,c),
(284.36,202.58,o),
(283.9,239.02,o),
(282.57,279.98,c),
(306.38,295.05,o),
(342.36,316.15,o),
(370.94,325.68,cs),
(399.38,335.16,o),
(442.45,310.04,o),
(444.68,245.24,cs),
(446.91,180.44,o),
(441.08,171.8,o),
(446.91,128.73,cs),
(452.15,90.06,o),
(541.3,-9.69,o),
(681.54,21.47,cs),
(761.98,39.35,o),
(744.11,144.37,o),
(744.11,144.37,c),
(717.29,81.8,o),
(663.12,54.51,o),
(643.55,77.33,cs)
);
}
);
width = 812;
}
);
note = k;
unicode = 107;
},
{
glyphname = l;
layers = (
{
layerId = m01;
shapes = (
{
closed = 1;
nodes = (
(11.9,320.81,l),
(5.54,66.24,l),
(67.06,100.18,l),
(60.7,308.08,l)
);
},
{
closed = 1;
nodes = (
(8.5,569.01,l),
(33.96,488.4,l),
(97.6,579.62,l)
);
},
{
closed = 1;
nodes = (
(606.62,59.08,l),
(636.31,207.03,o),
(645.27,387.65,o),
(625.84,511.96,c),
(543.1,412.25,l)
);
},
{
closed = 1;
nodes = (
(384,301.72,o),
(477.34,556.29,o),
(591.9,588.11,c),
(462.49,594.47,o),
(314,573.26,o),
(314,573.26,c),
(314,573.26,o),
(345.82,297.48,o),
(341.58,259.29,c)
);
},
{
closed = 1;
nodes = (
(241.88,110.79,o),
(260.97,458.7,o),
(222.78,585.98,c),
(188.84,520.22,o),
(72.16,407.78,o),
(0.03,435.36,c),
(33.97,369.6,o),
(74.28,380.2,o),
(112.47,384.45,c),
(118.83,354.75,o),
(118.83,157.46,o),
(114.59,66.24,c),
(114.59,66.24,o),
(44.58,51.39,o),
(6.4,28.06,c),
(21.25,6.85,o),
(375.53,13.21,o),
(528.27,42.91,c),
(536.76,83.22,o),
(557.97,185.04,o),
(513.42,299.6,c),
(503.78,200.92,o),
(339.78,84.9,o),
(260.97,83.22,c)
);
}
);
width = 695;
}
);
note = l;
unicode = 108;
},
{
glyphname = m;
layers = (
{
layerId = m01;
shapes = (
{
closed = 1;
nodes = (
(802.74,368.75,l),
(747.72,146.18,l),
(805.24,93.66,l)
);
},
{
closed = 1;
nodes = (
(57.52,578.81,l),
(57.52,578.81,o),
(67.52,478.78,o),
(75.03,443.77,c),
(125.04,463.78,o),
(192.56,563.81,o),
(197.57,588.81,c)
);
},
{
closed = 1;
nodes = (
(377.62,566.3,l),
(457.64,468.77,l),
(605.18,571.3,l)
);
},
{
closed = 1;
nodes = (
(607.68,521.29,ls),
(505.15,461.27,o),
(433.83,383.92,o),
(433.83,383.92,c),
(277.59,611.32,l),
(270.09,536.3,o),
(170.06,376.25,o),
(0.01,366.25,c),
(37.52,323.74,o),
(110.04,313.73,o),
(110.04,313.73,c),
(92.53,113.67,l),
(41.75,75.03,o),
(19.59,34.42,o),
(0,-6.36,c),
(247.57,11.14,l),
(255.52,396.4,l),
(357.6,278.72,l),
(320.09,206.2,o),
(365.1,-11.37,o),
(457.63,-6.36,c),
(412.62,38.65,o),
(372.61,228.71,o),
(530.15,336.24,c),
(532.65,291.23,o),
(550.16,31.15,o),
(550.16,31.15,c),
(792.73,31.15,l),
(755.22,56.16,o),
(715.21,111.17,o),
(715.21,111.17,c),
(690.2,468.78,l),
(715.21,493.79,o),
(747.72,501.29,o),
(805.23,486.29,c),
(812.73,531.3,o),
(714.82,584.02,o),
(607.67,521.3,cs)
);
}
);
width = 863;
}
);
note = m;
unicode = 109;
},
{
glyphname = n;
layers = (
{
layerId = m01;
shapes = (
{
closed = 1;
nodes = (
(343.83,52.75,l),
(232.55,60.4,o),
(149.16,39.59,o),
(70.72,13.74,c),
(507.2,6.42,l),
(453.37,24.02,o),
(386.9,71.52,o),
(351.14,123.46,c)
);
},
{
closed = 1;
nodes = (
(451.48,602.41,o),
(324.32,591.64,o),
(324.32,591.64,c),
(324.32,591.64,o),
(416.98,467.28,o),
(416.98,459.96,cs),
(416.98,452.64,o),
(465.5,564.78,o),
(522.55,596.88,c)
);
},
{
closed = 1;
nodes = (
(194.81,586.29,o),
(31.44,566.78,o),
(31.44,566.78,c),
(44.71,450.67,l),
(125.94,446.45,o),
(248.46,500.94,o),
(233.83,586.28,c)
);
},
{
closed = 1;
nodes = (
(648.63,225.86,ls),
(690.08,167.34,o),
(634,91.75,o),
(558.41,145.39,cs),
(482.82,199.04,o),
(502.33,359.97,o),
(526.71,430.69,cs),
(551.09,501.4,o),
(616.93,506.28,o),
(646.19,479.46,cs),
(675.45,452.64,o),
(685.21,420.94,o),
(660.82,403.87,c),
(646.19,428.26,o),
(609.61,435.57,o),
(592.54,425.82,cs),
(575.47,416.07,o),
(553.52,369.74,o),
(607.17,347.79,cs),
(660.82,325.84,o),
(716.9,377.05,o),
(716.9,445.33,cs),
(716.9,513.61,o),
(665.69,564.81,o),
(602.29,557.5,cs),
(561.04,552.74,o),
(473.05,525.8,o),
(441.35,342.92,c),
(441.35,342.92,o),
(346.25,472.16,o),
(268.22,535.56,c),
(229.2,355.12,o),
(87.78,381.94,o),
(39.01,416.08,c),
(70.71,360,o),
(107.29,340.49,o),
(107.29,340.49,c),
(107.29,340.49,o),
(117.04,181.99,o),
(121.92,133.22,c),
(70.71,128.34,o),
(0,82.01,o),
(26.82,33.24,c),
(65.84,103.95,o),
(151.18,101.52,o),
(297.49,82.01,c),
(273.1,150.29,o),
(243.84,260.02,o),
(243.84,367.31,c),
(243.84,367.31,o),
(377.95,103.96,o),
(504.75,55.19,cs),
(631.55,6.42,o),
(690.07,72.26,o),
(712.02,113.71,cs),
(733.97,155.16,o),
(716.9,225.88,o),
(648.62,225.88,cs)
);
}
);
width = 784;
}
);
note = n;
unicode = 110;
},
{
glyphname = o;
lastChange = "2024-06-01 14:10:28 +0000";
layers = (
{
layerId = m01;
shapes = (
{
closed = 1;
nodes = (
(431.47,0.46,o),
(593.44,207.72,o),
(626.9,298.3,c),
(619.4,354.49,o),
(550.39,449.47,o),
(457.2,474.62,cs),
(457.19,474.61,ls),
(463.81,598.86,o),
(397.82,603.97,o),
(342.19,609.47,cs),
(277.45,615.87,o),
(194.46,547.66,o),
(190.46,486.4,c),
(188.1,473.73,o),
(186.85,456.52,o),
(191.38,438.49,c),
(239.12,422.08,o),
(292.07,486.79,o),
(292.07,486.79,c),
(292.07,486.79,o),
(290.78,524.91,o),
(260.31,525.66,cs),
(248.61,525.95,o),
(236.48,523.24,o),
(225.93,519.81,c),
(245.17,533.49,o),
(269.26,543.83,o),
(291.87,547.24,cs),
(335.28,553.79,o),
(412.12,572.2,o),
(393.97,483.79,cs),
(375.82,395.37,o),
(206.89,294.34,o),
(101.92,347.71,c),
(170.45,175.27,l),
(170.45,175.27,o),
(121.63,160.44,o),
(98.36,148.32,cs),
(77.52,137.47,o),
(59.63,110.33,o),
(53.2,88.5,c),
(187.06,141.06,o),
(315.13,94.74,o),
(431.47,0.46,c)
);
},
{
closed = 1;
nodes = (
(344.88,-5.02,o),
(310.83,41.52,o),
(217.39,59.06,cs),
(123.95,76.6,o),
(64.13,34.91,o),
(40.2,2.49,c),
(344.88,-5.02,l)
);
},
{
closed = 1;
nodes = (
(43.43,191.73,o),
(102.32,205.51,o),
(102.32,205.51,c),
(60.24,394.43,l),
(60.25,394.44,l),
(116.61,408.28,l),
(105.26,453.29,o),
(110.12,494.96,o),
(171.43,582.31,c),
(122.86,573.35,o),
(0.01,571.41,o),
(0.01,571.41,c),
(20.16,179.61,l)
);
},
{
closed = 1;
nodes = (
(415.55,181.26,o),
(360.11,207.66,o),
(310.06,193.82,c),
(299.59,318.54,l),
(323.41,330.04,o),
(343.75,347.92,o),
(367.52,375.26,c),
(417.55,351.18,o),
(472.24,314.28,o),
(499.55,217.13,c),
(499.55,217.13,o),
(472.74,174.63,o),
(451.77,154.83,c)
);
},
{
closed = 1;
nodes = (
(635.8,196.67,l),
(500.34,8.92,l),
(627.37,8.33,l)
);
},
{
closed = 1;
nodes = (
(618.63,473.79,o),
(616.05,550.03,o),
(616.05,550.03,c),
(506.62,545.11,l),
(506.62,545.11,o),
(609.84,438.47,o),
(619.25,415.38,c)
);
}
);
width = 686;
}
);
note = o;
unicode = 111;
},
{
glyphname = p;
layers = (
{
layerId = m01;
shapes = (
{
closed = 1;
nodes = (
(526.87,24.94,o),
(671.29,22.27,o),
(671.29,22.27,c),
(647.22,193.44,l),
(647.22,193.44,o),
(494.77,99.83,o),
(460.01,22.27,c)
);
},
{
closed = 1;
nodes = (
(513.5,570.54,l),
(655.25,442.16,l),
(660.6,573.21,l)
);
},
{
closed = 1;
nodes = (
(27.24,52.96,l),
(106.5,152.75,l),
(29.72,228.2,l)
);
},
{
closed = 1;
nodes = (
(0,598.16,l),
(7.43,435.09,l),
(331.89,593.3,l),
(-0.01,598.17,l)
);
},
{
closed = 1;
nodes = (
(400.29,286.16,o),
(365.66,267.54,o),
(331.67,237.38,c),
(323.41,301.83,o),
(318.36,361.55,o),
(315.37,402.64,c),
(335.18,363.7,o),
(394.63,330.43,o),
(430.96,301.23,c)
);
},
{
closed = 1;
nodes = (
(592.2,285.71,o),
(542.51,203.74,o),
(516.17,177.39,c),
(556.29,180.06,o),
(665.94,295.07,o),
(658.83,383.16,c),
(658.83,383.16,o),
(523.43,477.27,o),
(437.57,568.14,c),
(364.92,499.99,o),
(186.58,402.63,o),
(14.86,399.39,c),
(44.58,366.94,o),
(100.72,353.96,o),
(150.26,344.22,c),
(150.26,308.52,o),
(166.77,149.5,o),
(173.38,100.83,c),
(116.41,91.91,o),
(56.97,50.53,o),
(74.31,16.45,c),
(122.61,68.91,o),
(241.39,71.57,o),
(378.13,6.71,c),
(361.25,59.23,o),
(348.6,122.35,o),
(339.08,184.53,c),
(388.99,232.86,o),
(492.07,293.69,o),
(567.8,335.23,c)
);
}
);
width = 721;
}
);
note = p;
unicode = 112;
},
{
glyphname = q;
layers = (
{
layerId = m01;
shapes = (
{
closed = 1;
nodes = (
(0,593.52,l),
(32.03,463.17,l),
(32.03,463.17,o),
(139.78,568.02,o),
(148.51,593.52,c)
);
},
{
closed = 1;
nodes = (
(576.58,361.15,l),
(439.71,182.62,l),
(579.49,174.12,l)
);
},
{
closed = 1;
nodes = (
(299.93,602.02,l),
(299.93,602.02,o),
(253.34,610.52,o),
(215.48,576.52,c),
(142.68,449,o),
(2.9,406.49,o),
(2.9,406.49,c),
(26.2,202.46,l),
(26.2,202.46,o),
(143.94,177.03,o),
(235.58,171.97,c),
(221.4,151.74,o),
(209.25,134.94,o),
(203.83,128.78,c),
(157.24,134.45,o),
(72.79,137.28,o),
(72.79,137.28,c),
(78.61,80.61,o),
(93.17,32.43,o),
(93.17,32.43,c),
(209.65,-12.91,o),
(474.65,4.09,o),
(544.54,9.76,c),
(567.84,52.27,o),
(582.4,134.45,o),
(582.4,134.45,c),
(524.16,128.78,o),
(285.37,131.62,o),
(244.6,128.78,c),
(302.84,210.96,o),
(404.76,355.48,o),
(404.76,355.48,c),
(404.76,355.48,o),
(270.8,414.99,o),
(259.16,437.66,c),
(238.77,389.49,o),
(227.13,352.65,o),
(241.69,332.81,cs),
(256.25,312.97,o),
(308.67,278.97,o),
(308.67,278.97,c),
(308.67,278.97,o),
(301.35,268.05,o),
(290.67,252.27,c),
(253.85,263.15,o),
(161.32,290.31,o),
(154.33,290.31,cs),
(145.59,290.31,o),
(142.68,383.82,o),
(145.59,449,c),
(145.59,449,o),
(195.1,502.84,o),
(221.3,511.34,cs),
(247.51,519.84,o),
(442.62,420.66,o),
(442.62,420.66,c),
(521.24,440.5,l),
(343.45,174.87,l),
(410.58,171.29,l),
(509.59,369.66,l),
(509.59,369.66,o),
(573.65,443.34,o),
(596.95,519.85,c),
(524.15,528.35,o),
(299.92,602.03,o),
(299.92,602.03,c)
);
}
);
width = 647;
}
);
note = q;
unicode = 113;
},
{
glyphname = r;
lastChange = "2024-06-01 14:10:28 +0000";
layers = (
{
layerId = m01;
shapes = (
{
closed = 1;
nodes = (
(267.09,91.33,o),
(252.85,168.3,o),
(248.37,209.01,c),
(248.37,209.01,o),
(507.76,-5.68,o),
(589.37,28.48,cs),
(704.37,76.62,o),
(669.6,239.76,o),
(669.6,239.76,c),
(669.6,239.76,o),
(616.35,203.02,o),
(542.56,194.29,cs),
(530.08,192.81,o),
(405.16,232.72,o),
(351.77,300.73,c),
(351.77,300.73,o),
(553.03,373.23,o),
(600.07,426.97,c),
(554.6,503.19,o),
(478.38,559.36,o),
(391.46,571.39,c),
(239.01,413.6,l),
(239.01,413.6,o),
(233.66,507.21,o),
(225.94,550.33,c),
(183.51,521.68,o),
(38.96,406.67,o),
(38.96,406.67,c),
(97.53,397.29,l),
(113.98,151.63,l),
(113.98,151.63,o),
(80.43,152.2,o),
(0.76,153.54,c),
(0.76,153.54,o),
(182.85,98.01,o),
(279.13,28.48,c)
);
},
{
closed = 1;
nodes = (
(200.14,36.92,l),
(4.32,115.72,l),
(2.34,-1.69,l),
(2.35,-1.7,l)
);
},
{
closed = 1;
nodes = (
(22.97,453.07,o),
(171.01,526.08,o),
(201.49,592.68,c),
(121.96,602.41,o),
(0,583.49,o),
(0,583.49,c),
(22.97,453.07,l)
);
},
{
closed = 1;
nodes = (
(236.54,318.49,o),
(239.57,329.51,o),
(239.02,372.15,c),
(336.64,433.66,l),
(364.82,419.27,o),
(385.83,398.42,o),
(400.83,372.15,c),
(239.02,282.55,l)
);
},
{
closed = 1;
nodes = (
(645.55,298.59,o),
(635.73,365.15,o),
(635.73,365.15,c),
(530.05,316.59,l),
(530.05,316.59,o),
(599.09,251.45,o),
(625.65,264.65,c)
);
},
{
closed = 1;
nodes = (
(667.77,526.68,o),
(656.53,606.56,o),
(656.53,606.56,c),
(471.88,601.28,l),
(471.88,601.28,o),
(592.15,519.56,o),
(666.78,467.97,c)
);
}
);
width = 754;
}
);
note = r;
unicode = 114;
},
{
glyphname = s;
layers = (
{
layerId = m01;
shapes = (
{
closed = 1;
nodes = (
(675.95,3.14,l),
(675.95,3.14,o),
(680.25,189.76,o),
(656.36,288.36,c),
(641.29,199.66,o),
(555.89,22.45,o),
(438.92,-0.5,c)
);
},
{
closed = 1;
nodes = (
(0,19.39,o),
(125.96,11.98,o),
(221,21.52,c),
(184.63,33.42,o),
(64.29,119.52,o),
(7.31,142.73,c),
(0,19.4,ls)
);
},
{
closed = 1;
nodes = (
(156.86,615.26,o),
(27.17,593.88,o),
(27.17,593.88,c),
(27.17,593.88,o),
(28.03,478.12,o),
(24.94,396.71,c),
(47.75,443.18,o),
(219.39,599.73,o),
(219.39,599.73,c)
);
},
{
closed = 1;
nodes = (
(498.24,110.95,ls),
(540.04,165.45,o),
(575.07,287.97,o),
(575.07,287.97,c),
(542.99,366.3,o),
(409.54,418.3,o),
(258.57,384.12,cs),
(223.21,376.11,o),
(196.63,414.51,o),
(204.16,428.25,cs),
(211.69,441.99,o),
(333.27,505.14,o),
(527.89,399.6,c),
(562.24,442.69,o),
(606.99,513.44,o),
(615.85,562.18,c),
(565.34,524.37,o),
(372.16,606.49,o),
(322.63,594.35,cs),
(273.1,582.21,o),
(91.26,409.18,o),
(84.02,341.69,c),
(84.02,341.69,o),
(151.54,273.69,o),
(187.99,248.94,c),
(266.41,283.35,o),
(413.33,275.43,o),
(490.1,204.75,c),
(483.84,162.92,o),
(471.55,147.03,o),
(437.82,120.27,c),
(350.92,170.31,o),
(236.2,226.08,o),
(196.53,227.58,cs),
(156.86,229.09,o),
(50.52,198.07,o),
(26.13,170.96,c),
(91.65,173.15,o),
(233.43,29.89,o),
(315.01,24.45,cs),
(396.59,19.01,o),
(456.44,56.47,o),
(498.23,110.97,cs)
);
}
);
width = 730;
}
);
note = s;
unicode = 115;
},
{
glyphname = t;
lastChange = "2024-06-01 14:10:28 +0000";
layers = (
{
layerId = m01;
shapes = (
{
closed = 1;
nodes = (
(415.58,27.54,o),
(541.73,141.5,o),
(545.44,224.38,c),
(545.44,224.38,o),
(467.94,134.31,o),
(376.21,136.22,c),
(370.06,262.11,l),
(430.42,324.53,l),
(364.84,368.92,l),
(361.01,447.37,l),
(442.17,426.08,o),
(526.89,401.24,o),
(526.89,401.24,c),
(526.89,401.24,o),
(593.67,487.57,o),
(671.59,584.27,c),
(597.38,570.46,l),
(597.38,570.46,o),
(270.88,608.45,o),
(241.19,580.82,cs),
(211.51,553.19,o),
(126.17,442.69,o),
(126.17,442.69,c),
(126.17,442.69,o),
(181.82,473.77,o),
(218.93,477.22,cs),
(228.09,478.07,o),
(251.54,473.86,o),
(281.61,467.05,c),
(172.47,420.24,o),
(87.19,338.86,o),
(92.79,255.47,cs),
(100.21,144.96,o),
(244.91,44.81,o),
(244.91,44.81,c),
(244.91,44.81,o),
(341.38,6.82,o),
(378.48,17.18,cs)
);
},
{
closed = 1;
nodes = (
(37.11,-0.08,o),
(141,-0.08,o),
(230.04,-0.08,c),
(230.04,-0.08,o),
(51.95,141.51,o),
(33.4,220.93,c),
(37.11,-0.08,l)
);
},
{
closed = 1;
nodes = (
(255.24,160.93,o),
(222.63,348.71,o),
(222.63,348.71,c),
(222.63,348.71,o),
(269.82,410.06,o),
(325.12,456.59,c),
(325.72,456.44,o),
(326.32,456.29,o),
(326.92,456.14,c),
(334.51,361.19,l),
(293.12,307.27,l),
(341.66,271.6,l),
(352.24,139.2,l)
);
},
{
closed = 1;
nodes = (
(40.82,453.04,o),
(148.42,598.08,o),
(148.42,598.08,c),
(0.01,604.99,l),
(0.01,604.99,o),
(22.27,491.03,o),
(33.4,432.32,c)
);
},
{
closed = 1;
nodes = (
(601.07,182.94,l),
(593.65,138.05,o),
(530.57,48.26,o),
(489.76,17.18,c),
(512.02,10.26,o),
(656.72,13.72,o),
(656.72,13.72,c)
);
},
{
closed = 1;
nodes = (
(638.17,504.09,l),
(556.54,376.32,l),
(638.17,234.73,l)
);
}
);
width = 722;
}
);
note = t;
unicode = 116;
},
{
glyphname = u;
layers = (
{
layerId = m01;
shapes = (
{
closed = 1;
nodes = (
(403.16,591.33,l),
(652.57,468.33,l),
(649.15,591.33,l)
);
},
{
closed = 1;
nodes = (
(-0.01,24.17,l),
(-0.01,24.17,o),
(119.57,0.25,o),
(184.49,24.17,c),
(109.32,51.5,o),
(47.82,116.42,o),
(10.24,188.17,c)
);
},
{
closed = 1;
nodes = (
(13.65,577.66,l),
(13.65,577.66,o),
(10.23,461.49,o),
(34.15,379.5,c),
(64.9,451.25,o),
(208.4,570.83,o),
(208.4,570.83,c)
);
},
{
closed = 1;
nodes = (
(645.73,430.76,l),
(451.93,481.6,l),
(457.81,266.75,l),
(457.81,266.75,o),
(355.31,232.58,o),
(297.23,150.58,c),
(184.48,277,o),
(215.23,413.66,o),
(327.98,553.74,c),
(181.07,502.49,o),
(99.07,423.91,o),
(78.57,294.08,cs),
(58.07,164.25,o),
(194.74,54.92,o),
(293.82,44.67,c),
(293.82,44.67,o),
(379.24,177.92,o),
(454.4,205.25,c),
(457.82,61.75,l),
(457.82,61.75,o),
(618.4,48.08,o),
(693.57,61.75,c),
(669.65,72,o),
(597.9,106.17,o),
(597.9,106.17,c),
(591.07,386.34,l)
);
}
);
width = 744;
}
);
note = u;
unicode = 117;
},
{
glyphname = v;
layers = (
{
layerId = m01;
shapes = (
{
closed = 1;
nodes = (
(287.56,55.54,l),
(40.66,418.63,l),
(49.37,43.92,l)
);
},
{
closed = 1;
nodes = (
(621.59,67.16,l),
(586.73,377.96,l),
(447.31,70.06,l)
);
},
{
closed = 1;
nodes = (
(412.45,558.05,ls),
(400.83,499.96,o),
(461.83,453.48,o),
(499.59,441.86,c),
(479.26,380.86,o),
(418.26,238.53,o),
(418.26,238.53,c),
(214.93,587.09,l),
(-0.02,529,l),
(-0.02,529,o),
(90.02,517.38,o),
(113.26,497.05,cs),
(136.5,476.72,o),
(374.68,17.77,o),
(374.68,17.77,c),
(618.67,581.28,l),
(618.67,581.28,o),
(461.82,604.52,o),
(412.44,558.04,cs)
);
}
);
width = 672;
}
);
note = v;
unicode = 118;
},
{
glyphname = w;
layers = (
{
layerId = m01;
shapes = (
{
closed = 1;
nodes = (
(412.61,52.64,l),
(369.82,181.02,l),
(310.98,71.37,l)
);
},
{
closed = 1;
nodes = (
(772.65,65.47,l),
(754.89,421.3,l),
(599.87,58.03,l)
);
},
{
closed = 1;
nodes = (
(176.06,66.31,l),
(13.05,478.21,l),
(0.01,62.04,l)
);
},
{
closed = 1;
nodes = (
(576.05,557.87,o),
(542.87,544.54,o),
(521.63,513.27,c),
(583.78,504.93,o),
(609.05,410.02,o),
(599.87,394.96,c),
(544.45,234.42,l),
(544.45,234.42,o),
(475.99,505.66,o),
(443.39,540.61,cs),
(410.79,575.56,o),
(244.52,542.29,o),
(244.52,542.29,c),
(283.64,504.25,o),
(309.72,501.63,o),
(309.72,501.63,c),
(335.8,440.53,l),
(290.16,325.72,l),
(290.16,325.72,o),
(205.4,564.08,o),
(185.84,589.6,cs),
(166.28,615.12,o),
(0.01,581.85,o),
(0.01,581.85,c),
(78.25,528.52,l),
(254.3,42.21,l),
(378.18,353.85,l),
(489.02,5.66,l),
(489.02,5.66,o),
(733.53,446.93,o),
(736.79,515.23,cs),
(740.05,583.53,o),
(652.91,584.65,o),
(612.91,570.71,cs)
);
}
);
width = 823;
}
);
note = w;
unicode = 119;
},
{
glyphname = x;
layers = (
{
layerId = m01;
shapes = (
{
closed = 1;
nodes = (
(55.11,434.1,l),
(57.01,140.79,l),
(57.01,140.79,o),
(148.13,246.52,o),
(197.32,294.27,c)
);
},
{
closed = 1;
nodes = (
(621.22,270.4,o),
(610.9,437.51,o),
(610.9,437.51,c),
(479.27,321.55,l),
(479.27,321.55,o),
(583.26,198.77,o),
(604.28,185.13,c)
);
},
{
closed = 1;
nodes = (
(520.75,427.14,o),
(630.51,540.55,o),
(629.55,563.7,c),
(546.51,601.22,o),
(375.9,594.4,o),
(329.28,567.11,c),
(329.28,567.11,o),
(390.5,488.67,o),
(432.7,457.97,c),
(428.77,449.41,o),
(401.85,420,o),
(363.7,380.44,c),
(300.71,464.07,o),
(242.42,537.54,o),
(227.95,543.24,cs),
(193.28,556.88,o),
(0,529.6,o),
(0,529.6,c),
(72.82,512.83,o),
(174.42,397.89,o),
(266.38,281.34,c),
(157.57,171.62,o),
(35.41,50.04,o),
(33.96,38.47,c),
(88.95,28.24,o),
(282.79,41.88,o),
(282.79,41.88,c),
(282.79,41.88,o),
(192.14,89.63,o),
(188.16,103.27,c),
(200.66,116.31,o),
(250.24,163.34,o),
(311.88,222.73,c),
(387.62,123.86,o),
(451.33,35.92,o),
(478.04,21.42,cs),
(540.84,-12.69,o),
(665.65,103.27,o),
(665.65,103.27,c),
(593.89,106.68,o),
(548.7,127.14,o),
(548.7,127.14,c),
(548.7,127.14,o),
(482.58,220.14,o),
(410.08,318.23,c)
);
}
);
width = 716;
}
);
note = x;
unicode = 120;
},
{
glyphname = y;
layers = (
{
layerId = m01;
shapes = (
{
closed = 1;
nodes = (
(73.51,334.18,o),
(20.58,432.23,o),
(20.58,432.23,c),
(35.28,189.83,l),
(194.06,252.47,l),
(194.06,252.47,o),
(108.79,296.05,o),
(91.15,315.11,cs)
);
},
{
closed = 1;
nodes = (
(332.26,80.88,o),
(376.37,40.02,o),
(376.37,40.02,c),
(596.89,50.91,l),
(558.67,383.19,l),
(558.67,383.19,o),
(332.26,146.23,o),
(332.26,113.55,cs)
);
},
{
closed = 1;
nodes = (
(355.78,519.37,o),
(405.77,467.62,o),
(467.52,481.24,c),
(467.52,481.24,o),
(423.42,410.43,o),
(388.13,375.02,c),
(373.43,375.02,o),
(314.62,396.81,o),
(314.62,396.81,c),
(314.62,396.81,o),
(197.01,571.12,o),
(173.48,579.29,cs),
(149.96,587.46,o),
(35.29,554.78,o),
(0,530.27,c),
(64.69,519.37,l),
(179.36,320.54,l),
(179.36,320.54,o),
(244.05,287.86,o),
(311.67,282.41,c),
(73.5,29.11,l),
(73.5,29.11,o),
(261.68,18.22,o),
(314.61,29.11,c),
(314.61,29.11,o),
(246.98,67.24,o),
(235.22,108.1,c),
(235.22,108.1,o),
(570.42,483.96,o),
(605.7,565.67,c),
(605.7,565.67,o),
(379.29,584.73,o),
(323.43,565.67,c)
);
}
);
width = 656;
}
);
note = y;
unicode = 121;
},
{
glyphname = z;
layers = (
{
layerId = m01;
shapes = (
{
closed = 1;
nodes = (
(15.52,456.12,o),
(0,288.46,o),
(21.73,213.95,c),
(55.88,235.68,o),
(152.13,328.83,o),
(152.13,328.83,c),
(15.52,456.12,l)
);
},
{
closed = 1;
nodes = (
(583.69,344.35,o),
(561.95,499.59,o),
(561.95,499.59,c),
(397.4,300.89,l),
(397.4,300.89,o),
(527.8,313.31,o),
(580.58,238.8,c)
);
},
{
closed = 1;
nodes = (
(440.87,232.59,ls),
(378.78,203.09,o),
(289.3,223.16,o),
(235.96,198.44,c),
(235.96,198.44,o),
(537.12,524.44,o),
(549.54,586.53,c),
(394.3,564.8,o),
(27.95,574.11,o),
(27.95,574.11,c),
(37.27,530.64,o),
(127.3,412.66,o),
(127.3,412.66,c),
(127.3,412.66,o),
(285.64,434.39,o),
(378.78,453.02,c),
(298.06,384.72,o),
(204.91,254.32,o),
(68.31,154.96,c),
(37.8,88.56,o),
(49.68,18.35,o),
(49.68,18.35,c),
(225.96,174.01,o),
(261.75,-15.19,o),
(586.8,27.66,c),
(633.37,83.54,o),
(440.88,232.57,o),
(440.88,232.57,c)
);
}
